<?xml version="1.0" encoding="utf-8"?>
<!-- Generator: Adobe Illustrator 21.0.1, SVG Export Plug-In . SVG Version: 6.00 Build 0)  -->
<svg version="1.1" id="Icons" xmlns="http://www.w3.org/2000/svg" xmlns:xlink="http://www.w3.org/1999/xlink" x="0px" y="0px"
	 viewBox="0 0 70 70" style="enable-background:new 0 0 70 70;" xml:space="preserve">
<style type="text/css">
	.st0{fill:#FFCF8C;}
	.st1{fill:#3D4753;}
</style>
<circle class="st0" cx="46" cy="25" r="15"/>
<g>
	<path class="st1" d="M35,60c-0.1,0-0.3,0-0.4-0.1C21.8,52.2,15.3,41.8,15.3,29v-9.9c0-0.3,0.2-0.5,0.4-0.7l19-8.4
		c0.2-0.1,0.4-0.1,0.6,0l19,8.4c0.3,0.1,0.4,0.4,0.4,0.7v9.4c0,0.4-0.3,0.7-0.7,0.7s-0.7-0.3-0.7-0.7v-8.9L35,11.5l-18.3,8.1V29
		c0,12.2,6.1,22.1,18.3,29.5c5.5-3.3,9.8-7.2,12.8-11.6c0.2-0.3,0.7-0.4,1-0.2c0.3,0.2,0.4,0.7,0.2,1c-3.2,4.6-7.8,8.7-13.6,12.2
		C35.3,60,35.1,60,35,60z"/>
	<path class="st1" d="M53.2,36.9c-0.4,0-0.7-0.3-0.7-0.7v0c0-0.1,0-0.1,0-0.2c0.1-0.6,0.3-1.3,0.4-2.1c0.1-0.4,0.4-0.6,0.8-0.6
		c0.4,0.1,0.6,0.4,0.6,0.8c-0.1,0.8-0.3,1.6-0.4,2.2C53.9,36.6,53.6,36.9,53.2,36.9L53.2,36.9z"/>
	<path class="st1" d="M50.9,43.7c-0.1,0-0.2,0-0.3-0.1c-0.4-0.2-0.5-0.6-0.3-1c0.3-0.6,0.6-1.2,0.8-1.9c0.1-0.4,0.6-0.5,0.9-0.4
		c0.4,0.1,0.5,0.6,0.4,0.9c-0.3,0.7-0.5,1.3-0.9,2C51.4,43.5,51.2,43.7,50.9,43.7L50.9,43.7z"/>
	<path class="st1" d="M35,42.6c-5.8,0-10.5-4.7-10.5-10.5S29.2,21.6,35,21.6s10.5,4.7,10.5,10.5C45.5,37.9,40.8,42.6,35,42.6z
		 M35,23.1c-5,0-9.1,4.1-9.1,9.1s4.1,9.1,9.1,9.1s9.1-4.1,9.1-9.1C44.1,27.1,40,23.1,35,23.1z"/>
	<path class="st1" d="M33,36.1c-0.2,0-0.4-0.1-0.5-0.2L30,33.4c-0.3-0.3-0.3-0.7,0-1c0.3-0.3,0.7-0.3,1,0l2,2l6-6
		c0.3-0.3,0.7-0.3,1,0c0.3,0.3,0.3,0.7,0,1l-6.5,6.5C33.4,36,33.2,36.1,33,36.1L33,36.1z"/>
</g>
</svg>
