<?xml version="1.0" encoding="utf-8"?>
<!-- Generator: Adobe Illustrator 21.0.1, SVG Export Plug-In . SVG Version: 6.00 Build 0)  -->
<svg version="1.1" id="Icons" xmlns="http://www.w3.org/2000/svg" xmlns:xlink="http://www.w3.org/1999/xlink" x="0px" y="0px"
	 viewBox="0 0 70 70" style="enable-background:new 0 0 70 70;" xml:space="preserve">
<style type="text/css">
	.st0{fill:#A4E3F8;}
	.st1{fill:#3D4753;}
</style>
<circle class="st0" cx="45" cy="42.9" r="15"/>
<g>
	<path class="st1" d="M41.2,20.4H28.8c-0.4,0-0.7-0.3-0.7-0.7v-6.9c0-0.4,0.3-0.7,0.7-0.7h12.5c0.4,0,0.7,0.3,0.7,0.7v6.9
		C41.9,20.1,41.6,20.4,41.2,20.4z M29.5,19h11v-5.5h-11V19z"/>
	<path class="st1" d="M59.3,42H46.8c-0.4,0-0.7-0.3-0.7-0.7v-6.9c0-0.4,0.3-0.7,0.7-0.7h12.5c0.4,0,0.7,0.3,0.7,0.7v6.9
		C60,41.7,59.7,42,59.3,42z M47.5,40.6h11v-5.5h-11V40.6z"/>
	<path class="st1" d="M41.2,42H28.8c-0.4,0-0.7-0.3-0.7-0.7v-6.9c0-0.4,0.3-0.7,0.7-0.7h12.5c0.4,0,0.7,0.3,0.7,0.7v6.9
		C42,41.7,41.6,42,41.2,42z M29.5,40.6h11v-5.5h-11V40.6z"/>
	<path class="st1" d="M23.2,42H10.7c-0.4,0-0.7-0.3-0.7-0.7v-6.9c0-0.4,0.3-0.7,0.7-0.7h12.5c0.4,0,0.7,0.3,0.7,0.7v6.9
		C23.9,41.7,23.6,42,23.2,42z M11.4,40.6h11v-5.5h-11V40.6z"/>
	<path class="st1" d="M35.6,57.9h-1.3c-0.4,0-0.7-0.3-0.7-0.7s0.3-0.7,0.7-0.7h1.3c0.4,0,0.7,0.3,0.7,0.7S36,57.9,35.6,57.9z"/>
	<path class="st1" d="M41.2,57.9h-2.4c-0.4,0-0.7-0.3-0.7-0.7s0.3-0.7,0.7-0.7h1.7V51h-11v5.5H31c0.4,0,0.7,0.3,0.7,0.7
		s-0.3,0.7-0.7,0.7h-2.2c-0.4,0-0.7-0.3-0.7-0.7v-6.9c0-0.4,0.3-0.7,0.7-0.7h12.5c0.4,0,0.7,0.3,0.7,0.7v6.9
		C42,57.6,41.6,57.9,41.2,57.9L41.2,57.9z"/>
	<path class="st1" d="M35,51c-0.4,0-0.7-0.3-0.7-0.7v-9c0-0.4,0.3-0.7,0.7-0.7s0.7,0.3,0.7,0.7v9C35.7,50.7,35.4,51,35,51L35,51z"/>
	<path class="st1" d="M35,35.1c-0.4,0-0.7-0.3-0.7-0.7V19.7c0-0.4,0.3-0.7,0.7-0.7s0.7,0.3,0.7,0.7v14.7
		C35.7,34.8,35.4,35.1,35,35.1z"/>
	<path class="st1" d="M53,35.1c-0.4,0-0.7-0.3-0.7-0.7v-7H17.5v7c0,0.4-0.3,0.7-0.7,0.7c-0.4,0-0.7-0.3-0.7-0.7v-7.7
		c0-0.4,0.3-0.7,0.7-0.7H53c0.4,0,0.7,0.3,0.7,0.7v7.7C53.8,34.8,53.4,35.1,53,35.1z"/>
</g>
</svg>
