<?xml version="1.0" encoding="utf-8"?>
<!-- Generator: Adobe Illustrator 21.0.1, SVG Export Plug-In . SVG Version: 6.00 Build 0)  -->
<svg version="1.1" id="Capa_1" xmlns="http://www.w3.org/2000/svg" xmlns:xlink="http://www.w3.org/1999/xlink" x="0px" y="0px"
	 viewBox="0 0 60 60" style="enable-background:new 0 0 60 60;" xml:space="preserve">
<style type="text/css">
	.st0{fill:#FFFFFF;}
</style>
<g>
	<g>
		<path class="st0" d="M27,33.5c1.2-0.8,2.3-1.7,3.3-2.7l3.4,2l3.1-5.4l-3.4-2c0.4-1.3,0.7-2.7,0.7-4.2l3.9-0.7L37,14.3L33.1,15
			c-0.5-1.3-1.3-2.6-2.1-3.7l2.5-3l-4.8-4l-2.5,3c-1.2-0.7-2.6-1.2-4-1.5v-4h-6.2v4c-1.4,0.3-2.8,0.8-4,1.5l-2.5-3l-4.8,4l2.5,3
			C6.2,12.5,5.5,13.7,5,15l-3.9-0.7L0,20.5l3.9,0.7c0,1.5,0.3,2.9,0.7,4.2l-3.4,2l3.1,5.4l3.4-2c1,1.1,2,2,3.3,2.7l-1.4,3.7l5.9,2.1
			l1.4-3.7c0.7,0.1,1.4,0.2,2.1,0.2c0.7,0,1.4-0.1,2.1-0.2l1.4,3.7l5.9-2.1L27,33.5z M19,28.7c-4.4,0-8-3.6-8-8c0-4.4,3.6-8,8-8
			s8,3.6,8,8C27,25.1,23.4,28.7,19,28.7z"/>
		<path class="st0" d="M53.9,38.2l-2.7,0.9c-0.5-0.9-1.1-1.7-1.9-2.4l1.5-2.4L47,31.9l-1.5,2.4c-0.9-0.3-1.9-0.6-3-0.6l-0.4-2.8
			l-4.4,0.6l0.4,2.8c-1,0.4-1.9,0.8-2.7,1.4l-2.1-1.9l-3,3.3l2.1,1.9c-0.5,0.9-0.9,1.8-1.1,2.8l-2.8-0.1l-0.2,4.5l2.8,0.1
			c0.2,1,0.5,2,0.9,2.9L29.8,51l2.7,3.5l2.2-1.7c0.8,0.7,1.6,1.2,2.6,1.6l-0.6,2.8l4.4,0.9l0.6-2.8c0.5,0,1,0,1.5-0.1
			c0.5-0.1,1-0.2,1.5-0.3l1.3,2.5l3.9-2.1l-1.3-2.5c0.8-0.7,1.5-1.4,2-2.3l2.6,1.1l1.7-4.1l-2.6-1.1c0.2-1,0.2-2,0.1-3.1l2.7-0.9
			L53.9,38.2z M42.6,50.1c-3.1,0.4-6-1.7-6.4-4.9c-0.4-3.1,1.7-6,4.9-6.4c3.1-0.4,6,1.7,6.4,4.9C47.9,46.8,45.7,49.7,42.6,50.1z"/>
		<path class="st0" d="M59.9,22.7l0.1-3.5l-2.2-0.1c-0.1-0.8-0.4-1.5-0.8-2.3l1.8-1.4l-2.2-2.8l-1.8,1.4c-0.6-0.5-1.3-0.9-2.1-1.3
			l0.5-2.2l-3.5-0.7l-0.5,2.2c-0.8,0-1.6,0.1-2.4,0.3l-1.1-2l-3.1,1.7l1.1,2c-0.6,0.5-1.2,1.1-1.6,1.8l-2.1-0.8l-1.3,3.3l2.1,0.8
			c-0.1,0.8-0.2,1.6-0.1,2.4l-2.1,0.7l1.1,3.4L42,25c0.4,0.7,0.9,1.3,1.5,1.9l-1.2,1.9l3,1.9l1.2-1.9c0.8,0.3,1.6,0.4,2.4,0.5
			l0.3,2.2l3.5-0.5l-0.3-2.2c0.4-0.1,0.7-0.3,1.1-0.5c0.4-0.2,0.7-0.4,1-0.6l1.7,1.5l2.3-2.6l-1.7-1.5c0.4-0.7,0.7-1.5,0.9-2.2
			L59.9,22.7z M51.5,24.6c-2.2,1.2-4.9,0.4-6.1-1.8c-1.2-2.2-0.4-4.9,1.8-6.1c2.2-1.2,4.9-0.4,6.1,1.8
			C54.5,20.7,53.7,23.4,51.5,24.6z"/>
	</g>
</g>
</svg>
