<?xml version="1.0" encoding="utf-8"?>
<!-- Generator: Adobe Illustrator 21.0.1, SVG Export Plug-In . SVG Version: 6.00 Build 0)  -->
<svg version="1.1" id="Icons" xmlns="http://www.w3.org/2000/svg" xmlns:xlink="http://www.w3.org/1999/xlink" x="0px" y="0px"
	 viewBox="0 0 70 70" style="enable-background:new 0 0 70 70;" xml:space="preserve">
<style type="text/css">
	.st0{fill:#F5E285;}
	.st1{fill:#3D4753;}
</style>
<circle class="st0" cx="25" cy="45" r="15"/>
<g>
	<path class="st1" d="M59.3,53c-0.4,0-0.7-0.3-0.7-0.7v-2.1c0-0.4,0.3-0.7,0.7-0.7s0.7,0.3,0.7,0.7v2.1C60,52.7,59.7,53,59.3,53z"/>
	<path class="st1" d="M57.1,60H12.9c-1.6,0-2.9-1.3-2.9-2.9V12.9c0-1.6,1.3-2.9,2.9-2.9h44.3c1.6,0,2.9,1.3,2.9,2.9v25.2
		c0,0.4-0.3,0.7-0.7,0.7s-0.7-0.3-0.7-0.7V12.9c0-0.8-0.6-1.4-1.4-1.4H12.9c-0.8,0-1.4,0.6-1.4,1.4v44.3c0,0.8,0.6,1.4,1.4,1.4h44.3
		c0.8,0,1.4-0.6,1.4-1.3c0-0.4,0.4-0.7,0.8-0.7c0.4,0,0.7,0.4,0.7,0.8l0,0C59.9,58.8,58.7,60,57.1,60z"/>
	<path class="st1" d="M59.3,45.9c-0.4,0-0.7-0.3-0.7-0.7v-2.1c0-0.4,0.3-0.7,0.7-0.7s0.7,0.3,0.7,0.7v2.1
		C60,45.6,59.7,45.9,59.3,45.9z"/>
	<path class="st1" d="M35,60c-0.4,0-0.7-0.3-0.7-0.7v-8.7c0-0.4,0.3-0.7,0.7-0.7s0.7,0.3,0.7,0.7v8.7C35.7,59.7,35.4,60,35,60z"/>
	<path class="st1" d="M35,20.1c-0.4,0-0.7-0.3-0.7-0.7v-8.7c0-0.4,0.3-0.7,0.7-0.7s0.7,0.3,0.7,0.7v8.7C35.7,19.8,35.4,20.1,35,20.1
		z"/>
	<path class="st1" d="M35,44.8c-0.4,0-0.7-0.3-0.7-0.7V25.9c0-0.4,0.3-0.7,0.7-0.7s0.7,0.3,0.7,0.7v18.2
		C35.7,44.5,35.4,44.8,35,44.8z"/>
	<path class="st1" d="M44.1,35.7H25.9c-0.4,0-0.7-0.3-0.7-0.7s0.3-0.7,0.7-0.7h18.2c0.4,0,0.7,0.3,0.7,0.7S44.5,35.7,44.1,35.7z"/>
	<path class="st1" d="M19.4,35.7h-8.7c-0.4,0-0.7-0.3-0.7-0.7s0.3-0.7,0.7-0.7h8.7c0.4,0,0.7,0.3,0.7,0.7S19.8,35.7,19.4,35.7z"/>
	<path class="st1" d="M59.3,35.7h-8.7c-0.4,0-0.7-0.3-0.7-0.7s0.3-0.7,0.7-0.7h8.7c0.4,0,0.7,0.3,0.7,0.7S59.7,35.7,59.3,35.7z"/>
	<path class="st1" d="M44.1,35.7c-0.2,0-0.4-0.1-0.5-0.2c-1.9-2.1-1.7-5.3,0.3-7.2s5.3-1.7,7.2,0.3c1.8,1.9,1.8,4.9,0,6.8
		c-0.3,0.3-0.7,0.3-1,0.1c-0.3-0.3-0.3-0.7-0.1-1c0,0,0,0,0,0c1.4-1.5,1.3-3.8-0.2-5.2c-1.5-1.4-3.8-1.3-5.2,0.2
		c-1.3,1.4-1.3,3.5,0,4.9c0.3,0.3,0.2,0.7,0,1C44.5,35.6,44.3,35.7,44.1,35.7z"/>
	<path class="st1" d="M22.7,43c-2.8,0-5.1-2.3-5.1-5.1c0-1.3,0.5-2.5,1.3-3.4c0.3-0.3,0.7-0.3,1-0.1s0.3,0.7,0.1,1c0,0,0,0,0,0
		c-1.4,1.5-1.3,3.8,0.2,5.2c1.5,1.4,3.8,1.3,5.2-0.2c1.3-1.4,1.3-3.5,0-4.9c-0.3-0.3-0.2-0.7,0.1-1c0.3-0.3,0.7-0.2,1,0
		c1.9,2.1,1.7,5.3-0.3,7.2C25.2,42.5,23.9,43,22.7,43L22.7,43z"/>
	<path class="st1" d="M37.9,52.4c-1.3,0-2.5-0.5-3.4-1.3c-0.3-0.3-0.3-0.7,0-1c0.3-0.3,0.7-0.3,1,0l0,0c0.7,0.6,1.5,1,2.5,1
		c2,0,3.7-1.6,3.7-3.6c0-2-1.6-3.7-3.6-3.7c-0.9,0-1.8,0.3-2.5,1c-0.3,0.3-0.7,0.2-1,0c-0.3-0.3-0.2-0.7,0-1
		c2.1-1.9,5.3-1.7,7.2,0.3c1.9,2.1,1.7,5.3-0.3,7.2C40.4,51.9,39.2,52.4,37.9,52.4L37.9,52.4z"/>
	<path class="st1" d="M32.1,27.7c-2.8,0-5.1-2.3-5.1-5.1s2.3-5.1,5.1-5.1c1.3,0,2.5,0.5,3.4,1.3c0.3,0.3,0.3,0.7,0,1s-0.7,0.3-1,0
		c-0.7-0.6-1.5-1-2.5-1c-2,0-3.7,1.6-3.7,3.6s1.6,3.7,3.6,3.7c0.9,0,1.8-0.3,2.5-1c0.3-0.3,0.7-0.2,1,0c0.3,0.3,0.2,0.7,0,1
		C34.5,27.3,33.3,27.7,32.1,27.7L32.1,27.7z"/>
</g>
</svg>
