<?xml version="1.0" encoding="utf-8"?>
<!-- Generator: Adobe Illustrator 21.0.1, SVG Export Plug-In . SVG Version: 6.00 Build 0)  -->
<svg version="1.1" id="Capa_1" xmlns="http://www.w3.org/2000/svg" xmlns:xlink="http://www.w3.org/1999/xlink" x="0px" y="0px"
	 viewBox="0 0 60 60" style="enable-background:new 0 0 60 60;" xml:space="preserve">
<style type="text/css">
	.st0{fill:#FFFFFF;}
</style>
<g id="XMLID_163_">
	<path id="XMLID_164_" class="st0" d="M0.6,50.1l21.3-21.3l5,5L5.6,55.1L0.6,50.1z"/>
	<path id="XMLID_166_" class="st0" d="M10.6,17.5L28.2,0l6.3,6.3L16.9,23.8L10.6,17.5z"/>
	<path id="XMLID_167_" class="st0" d="M21.9,23.8l12.5-12.5l10,10L31.9,33.8L21.9,23.8z"/>
	<path id="XMLID_4689_" class="st0" d="M31.9,38.8l17.5-17.5l6.3,6.3L38.2,45.1L31.9,38.8z"/>
	<path id="XMLID_4690_" class="st0" d="M53.4,49.4h-20c-3.3,0-6,2.7-6,6V60h31.9v-4.7C59.4,52.1,56.7,49.4,53.4,49.4z"/>
</g>
</svg>
