<?xml version="1.0" encoding="utf-8"?>
<!-- Generator: Adobe Illustrator 21.0.1, SVG Export Plug-In . SVG Version: 6.00 Build 0)  -->
<svg version="1.1" id="line_color" xmlns="http://www.w3.org/2000/svg" xmlns:xlink="http://www.w3.org/1999/xlink" x="0px" y="0px"
	 viewBox="0 0 100 100" style="enable-background:new 0 0 100 100;" xml:space="preserve">
<style type="text/css">
	.st0{fill:#FFFFFF;}
	.st1{fill:#84879C;}
	.st2{fill:#323C6B;}
	.st3{fill:#BBBBCD;}
	.st4{fill:#9297AB;}
	.st5{fill:#FCD462;}
</style>
<circle class="st0" cx="50" cy="50" r="50"/>
<g>
	<path class="st1" d="M60.7,29.8v-4.2c0-0.8-0.7-1.5-1.5-1.5H43.7c-0.8,0-1.5,0.7-1.5,1.5v4.2h-4.9v-4.6c0-2.8,2.2-5,5-5h18.2
		c2.8,0,5,2.2,5,5c0,0,0,0,0,0v4.6H60.7z"/>
	<path class="st2" d="M65.5,30.3h-4.9c-0.3,0-0.5-0.2-0.5-0.5v-4.2c0-0.5-0.4-1-1-1H43.7c-0.5,0-1,0.4-1,1v4.2
		c0,0.3-0.2,0.5-0.5,0.5h-4.9c-0.3,0-0.5-0.2-0.5-0.5v-4.6c0-3,2.5-5.5,5.5-5.5h18.2c3,0,5.5,2.5,5.5,5.5v4.6
		C66,30.1,65.8,30.3,65.5,30.3z M61.2,29.3h3.9v-4.1c0-2.5-2-4.5-4.5-4.5H42.4c-2.5,0-4.5,2-4.5,4.5v4.1h3.9v-3.7c0-1.1,0.9-1.9,2-2
		h15.5c1.1,0,2,0.9,2,2V29.3z"/>
	<path class="st3" d="M84.5,32.5v40.7c0,2-1.6,3.7-3.7,3.7H22.1c-2,0-3.7-1.6-3.7-3.7V32.5c0-0.4,0.1-0.8,0.2-1.2
		c0.5-1.5,1.9-2.5,3.5-2.5h58.8c1.6,0,3,1,3.5,2.5C84.4,31.7,84.5,32.1,84.5,32.5L84.5,32.5z"/>
	<path class="st4" d="M84.3,31.3c-0.4-1.2-1.5-2.2-2.7-2.4c0,0.1,0,0.2,0,0.3v40.7c0,2-1.6,3.7-3.7,3.7H19.1c-0.2,0-0.5,0-0.7-0.1
		c0.2,1.9,1.7,3.4,3.6,3.4h58.8c2,0,3.7-1.6,3.7-3.7V32.5C84.5,32.1,84.4,31.7,84.3,31.3L84.3,31.3z"/>
	<path class="st3" d="M54.8,49.3h15.9c1.4,0,2.6-0.7,3.4-1.8l10.3-16.1c-0.5-1.5-1.9-2.5-3.5-2.5H22.1c-1.6,0-3,1-3.5,2.5l10.3,16.2
		c0.7,1.1,2,1.8,3.3,1.8h15.9"/>
	<g>
		<path class="st2" d="M70.6,49.8H54.8c-0.3,0-0.5-0.2-0.5-0.5s0.2-0.5,0.5-0.5h15.9c1.2,0,2.3-0.6,2.9-1.6l10.2-15.9
			c-0.5-1.2-1.6-2-2.9-2H22.1c-1.3,0-2.4,0.8-2.9,1.9l10.2,16c0.6,1,1.7,1.6,2.9,1.6h15.9c0.3,0,0.5,0.2,0.5,0.5
			c0,0.3-0.2,0.5-0.5,0.5H32.3c-1.5,0-2.9-0.8-3.8-2.1L18.2,31.6c-0.1-0.1-0.1-0.3-0.1-0.4c0.6-1.7,2.1-2.8,3.9-2.8h58.8
			c1.8,0,3.4,1.1,3.9,2.8c0,0.1,0,0.3-0.1,0.4L74.4,47.7C73.6,49,72.2,49.8,70.6,49.8L70.6,49.8z"/>
		<path class="st2" d="M62.1,80.2h-1c-0.3,0-0.5-0.2-0.5-0.5c0-0.3,0.2-0.5,0.5-0.5h1c0.3,0,0.5,0.2,0.5,0.5
			C62.6,80,62.3,80.2,62.1,80.2z"/>
		<path class="st2" d="M58.3,80.2h-8.7c-0.3,0-0.5-0.2-0.5-0.5c0-0.3,0.2-0.5,0.5-0.5h8.7c0.3,0,0.5,0.2,0.5,0.5
			C58.8,80,58.6,80.2,58.3,80.2z"/>
		<path class="st2" d="M15.5,36.9c-0.3,0-0.5-0.2-0.5-0.5v-0.9c0-0.3,0.2-0.5,0.5-0.5c0.3,0,0.5,0.2,0.5,0.5v0.9
			C16,36.7,15.8,36.9,15.5,36.9z"/>
		<path class="st2" d="M15.5,33.5c-0.3,0-0.5-0.2-0.5-0.5v-0.5c0-0.8,0.1-1.6,0.4-2.3c0.8-2.4,2.9-4.2,5.4-4.6
			c0.3-0.1,0.5,0.1,0.6,0.4c0.1,0.3-0.1,0.5-0.4,0.6c0,0,0,0,0,0c-2.1,0.4-3.9,1.9-4.6,4c-0.2,0.6-0.3,1.3-0.3,2V33
			C16,33.3,15.8,33.5,15.5,33.5L15.5,33.5z"/>
	</g>
	<path class="st5" d="M50.8,45.5h1.3c0.9,0,1.6,0.7,1.7,1.6l0.7,6c0.1,1-0.6,1.8-1.5,2c-0.1,0-0.1,0-0.2,0h-2.7
		c-1,0-1.8-0.8-1.8-1.8c0-0.1,0-0.1,0-0.2l0.7-6C49.2,46.2,49.9,45.5,50.8,45.5L50.8,45.5z"/>
	<path class="st2" d="M52.8,55.5h-2.7c-1.2,0-2.2-1-2.3-2.2c0-0.1,0-0.2,0-0.3l0.7-6c0.1-1.1,1.1-2,2.2-2h1.3c1.1,0,2.1,0.9,2.2,2
		l0.7,6c0.1,1.2-0.7,2.3-2,2.5C53,55.5,52.9,55.5,52.8,55.5L52.8,55.5z M50.8,46c-0.6,0-1.2,0.5-1.3,1.1l-0.7,6
		c-0.1,0.7,0.4,1.3,1.1,1.4c0,0,0.1,0,0.1,0h2.7c0.4,0,0.7-0.2,1-0.4c0.2-0.3,0.4-0.6,0.3-1l-0.7-6c-0.1-0.6-0.6-1.1-1.3-1.1
		L50.8,46z"/>
	<path class="st2" d="M51.5,50.7c-0.3,0-0.5-0.2-0.5-0.5v-1.8c0-0.3,0.2-0.5,0.5-0.5c0.3,0,0.5,0.2,0.5,0.5v1.8
		C51.9,50.5,51.7,50.7,51.5,50.7z"/>
	<path class="st2" d="M80.9,77.3H22.1c-2.3,0-4.1-1.9-4.1-4.1V32.5c0-0.5,0.1-0.9,0.2-1.3c0.6-1.7,2.1-2.8,3.9-2.8h58.8
		c1.8,0,3.4,1.1,3.9,2.8c0.1,0.4,0.2,0.9,0.2,1.3v40.7C85,75.5,83.1,77.3,80.9,77.3z M22.1,29.3c-1.4,0-2.6,0.9-3,2.2
		c-0.1,0.3-0.2,0.7-0.2,1v40.7c0,1.8,1.4,3.2,3.2,3.2h58.8c1.8,0,3.2-1.4,3.2-3.2V32.5c0-0.3-0.1-0.7-0.2-1c-0.4-1.3-1.6-2.2-3-2.2
		L22.1,29.3z"/>
	<path class="st0" d="M71.4,53.5h-0.6c-0.3,0-0.6-0.3-0.6-0.6c0-0.3,0.3-0.6,0.6-0.6c0,0,0,0,0,0h0.6c0.3,0,0.6,0.3,0.6,0.6
		C72,53.2,71.7,53.5,71.4,53.5z"/>
	<path class="st0" d="M68.3,53.5H60c-0.3,0-0.6-0.3-0.6-0.6c0-0.3,0.3-0.6,0.6-0.6h8.2c0.3,0,0.6,0.3,0.6,0.6
		C68.9,53.2,68.6,53.5,68.3,53.5z"/>
</g>
</svg>
