<?xml version="1.0" encoding="utf-8"?>
<!-- Generator: Adobe Illustrator 21.0.1, SVG Export Plug-In . SVG Version: 6.00 Build 0)  -->
<svg version="1.1" id="Слой_1" xmlns="http://www.w3.org/2000/svg" xmlns:xlink="http://www.w3.org/1999/xlink" x="0px" y="0px"
	 viewBox="0 0 70 70" style="enable-background:new 0 0 70 70;" xml:space="preserve">
<style type="text/css">
	.st0{fill:#B0ABB3;}
</style>
<g>
	<path class="st0" d="M52.5,19.9h-6.8v-2.4c0-0.3-0.2-0.5-0.5-0.5h-2.3c-0.3,0-0.5,0.2-0.5,0.5c0,0,0,0,0,0v2.4h-5.7v-2.4
		c0-0.3-0.2-0.5-0.5-0.5c0,0,0,0,0,0h-2.3c-0.3,0-0.5,0.2-0.5,0.5c0,0,0,0,0,0v2.4h-5.7v-2.4c0-0.3-0.2-0.5-0.5-0.5c0,0,0,0,0,0
		h-2.3c-0.3,0-0.5,0.2-0.5,0.5v2.4h-6.8c-0.3,0-0.5,0.2-0.5,0.5c0,0,0,0,0,0v32.1c0,0.3,0.2,0.5,0.5,0.5c0,0,0,0,0,0h34.9
		c0.3,0,0.5-0.2,0.5-0.5c0,0,0,0,0,0V20.4C53,20.1,52.8,19.9,52.5,19.9C52.5,19.9,52.5,19.9,52.5,19.9L52.5,19.9z M43.4,18.1h1.2
		v4.7h-1.2V18.1z M34.4,18.1h1.2v4.7h-1.2L34.4,18.1z M25.4,18.1h1.2v4.7h-1.2L25.4,18.1z M18.1,20.9h6.3v2.4c0,0.3,0.2,0.5,0.5,0.5
		h2.3c0.3,0,0.5-0.2,0.5-0.5c0,0,0,0,0,0v-2.4h5.7v2.4c0,0.3,0.2,0.5,0.5,0.5c0,0,0,0,0,0h2.3c0.3,0,0.5-0.2,0.5-0.5c0,0,0,0,0,0
		v-2.4h5.7v2.4c0,0.3,0.2,0.5,0.5,0.5c0,0,0,0,0,0h2.3c0.3,0,0.5-0.2,0.5-0.5v-2.4h6.3V27H18.1V20.9z M18.1,51.9V28.1h33.9v23.9
		H18.1z"/>
	<path class="st0" d="M24,30.5c-1.3,0-2.4,1.1-2.4,2.4c0,1.3,1.1,2.4,2.4,2.4c1.3,0,2.4-1.1,2.4-2.4C26.4,31.6,25.3,30.5,24,30.5z
		 M24,34.3c-0.8,0-1.4-0.6-1.4-1.4c0-0.8,0.6-1.4,1.4-1.4s1.4,0.6,1.4,1.4C25.4,33.7,24.8,34.3,24,34.3z"/>
	<path class="st0" d="M31.3,30.5c-1.3,0-2.4,1.1-2.4,2.4c0,1.3,1.1,2.4,2.4,2.4s2.4-1.1,2.4-2.4C33.8,31.6,32.7,30.5,31.3,30.5z
		 M31.3,34.3c-0.8,0-1.4-0.6-1.4-1.4c0-0.8,0.6-1.4,1.4-1.4s1.4,0.6,1.4,1.4C32.7,33.7,32.1,34.3,31.3,34.3z"/>
	<path class="st0" d="M38.7,30.5c-1.3,0-2.4,1.1-2.4,2.4s1.1,2.4,2.4,2.4c1.3,0,2.4-1.1,2.4-2.4c0,0,0,0,0,0
		C41.1,31.6,40,30.5,38.7,30.5z M38.7,34.3c-0.8,0-1.4-0.6-1.4-1.4c0-0.8,0.6-1.4,1.4-1.4c0.8,0,1.4,0.6,1.4,1.4l0,0
		C40,33.7,39.4,34.3,38.7,34.3z"/>
	<path class="st0" d="M46,30.5c-1.3,0-2.4,1.1-2.4,2.4c0,1.3,1.1,2.4,2.4,2.4c1.3,0,2.4-1.1,2.4-2.4c0,0,0,0,0,0
		C48.4,31.6,47.3,30.5,46,30.5z M46,34.3c-0.8,0-1.4-0.6-1.4-1.4c0-0.8,0.6-1.4,1.4-1.4c0.8,0,1.4,0.6,1.4,1.4c0,0,0,0,0,0
		C47.4,33.7,46.8,34.3,46,34.3z"/>
	<path class="st0" d="M24,37.6c-1.3,0-2.4,1.1-2.4,2.4c0,1.3,1.1,2.4,2.4,2.4c1.3,0,2.4-1.1,2.4-2.4c0,0,0,0,0,0
		C26.4,38.7,25.3,37.6,24,37.6z M24,41.4c-0.8,0-1.4-0.6-1.4-1.4s0.6-1.4,1.4-1.4s1.4,0.6,1.4,1.4c0,0,0,0,0,0
		C25.4,40.8,24.8,41.4,24,41.4L24,41.4z"/>
	<path class="st0" d="M31.3,37.6c-1.3,0-2.4,1.1-2.4,2.4c0,1.3,1.1,2.4,2.4,2.4c1.3,0,2.4-1.1,2.4-2.4c0,0,0,0,0,0
		C33.8,38.7,32.7,37.6,31.3,37.6z M31.3,41.4c-0.8,0-1.4-0.6-1.4-1.4c0-0.8,0.6-1.4,1.4-1.4s1.4,0.6,1.4,1.4c0,0,0,0,0,0
		C32.7,40.8,32.1,41.4,31.3,41.4L31.3,41.4z"/>
	<path class="st0" d="M38.7,37.6c-1.3,0-2.4,1.1-2.4,2.4s1.1,2.4,2.4,2.4c1.3,0,2.4-1.1,2.4-2.4c0,0,0,0,0,0
		C41.1,38.7,40,37.6,38.7,37.6z M38.7,41.4c-0.8,0-1.4-0.6-1.4-1.4c0-0.8,0.6-1.4,1.4-1.4c0.8,0,1.4,0.6,1.4,1.4c0,0,0,0,0,0
		C40,40.8,39.4,41.4,38.7,41.4L38.7,41.4z"/>
	<path class="st0" d="M46,37.6c-1.3,0-2.4,1.1-2.4,2.4c0,1.3,1.1,2.4,2.4,2.4c1.3,0,2.4-1.1,2.4-2.4c0,0,0,0,0,0
		C48.4,38.7,47.3,37.6,46,37.6z M46,41.4c-0.8,0-1.4-0.6-1.4-1.4c0-0.8,0.6-1.4,1.4-1.4c0.8,0,1.4,0.6,1.4,1.4c0,0,0,0,0,0
		C47.4,40.8,46.8,41.4,46,41.4L46,41.4z"/>
	<path class="st0" d="M24,44.7c-1.3,0-2.4,1.1-2.4,2.4c0,1.3,1.1,2.4,2.4,2.4c1.3,0,2.4-1.1,2.4-2.4l0,0
		C26.4,45.8,25.3,44.7,24,44.7z M24,48.5c-0.8,0-1.4-0.6-1.4-1.4c0-0.8,0.6-1.4,1.4-1.4s1.4,0.6,1.4,1.4l0,0
		C25.4,47.9,24.8,48.5,24,48.5z"/>
	<path class="st0" d="M31.3,44.7c-1.3,0-2.4,1.1-2.4,2.4c0,1.3,1.1,2.4,2.4,2.4s2.4-1.1,2.4-2.4l0,0C33.8,45.8,32.7,44.7,31.3,44.7z
		 M31.3,48.5c-0.8,0-1.4-0.6-1.4-1.4c0-0.8,0.6-1.4,1.4-1.4s1.4,0.6,1.4,1.4l0,0C32.7,47.9,32.1,48.5,31.3,48.5z"/>
	<path class="st0" d="M38.7,44.7c-1.3,0-2.4,1.1-2.4,2.4c0,1.3,1.1,2.4,2.4,2.4c1.3,0,2.4-1.1,2.4-2.4v0
		C41.1,45.8,40,44.7,38.7,44.7z M38.7,48.5c-0.8,0-1.4-0.6-1.4-1.4s0.6-1.4,1.4-1.4c0.8,0,1.4,0.6,1.4,1.4c0,0,0,0,0,0
		C40,47.9,39.4,48.5,38.7,48.5z"/>
	<path class="st0" d="M46,44.7c-1.3,0-2.4,1.1-2.4,2.4c0,1.3,1.1,2.4,2.4,2.4c1.3,0,2.4-1.1,2.4-2.4c0,0,0,0,0,0
		C48.4,45.8,47.3,44.7,46,44.7z M46,48.5c-0.8,0-1.4-0.6-1.4-1.4c0-0.8,0.6-1.4,1.4-1.4c0.8,0,1.4,0.6,1.4,1.4c0,0,0,0,0,0
		C47.4,47.9,46.8,48.5,46,48.5z"/>
</g>
<g>
	<path class="st0" d="M60,1c5,0,9,4,9,9v50c0,5-4,9-9,9H10c-5,0-9-4-9-9V10c0-5,4-9,9-9H60 M60,0H10C4.5,0,0,4.5,0,10v50
		c0,5.5,4.5,10,10,10h50c5.5,0,10-4.5,10-10V10C70,4.5,65.5,0,60,0L60,0z"/>
</g>
</svg>
