<?xml version="1.0" encoding="utf-8"?>
<!-- Generator: Adobe Illustrator 21.0.1, SVG Export Plug-In . SVG Version: 6.00 Build 0)  -->
<svg version="1.1" id="Слой_1" xmlns="http://www.w3.org/2000/svg" xmlns:xlink="http://www.w3.org/1999/xlink" x="0px" y="0px"
	 viewBox="0 0 70 70" style="enable-background:new 0 0 70 70;" xml:space="preserve">
<style type="text/css">
	.st0{fill:#B0ABB3;}
</style>
<g>
	<path class="st0" d="M35,1c18.7,0,34,15.3,34,34S53.7,69,35,69S1,53.7,1,35S16.3,1,35,1 M35,0C15.7,0,0,15.7,0,35s15.7,35,35,35
		s35-15.7,35-35S54.3,0,35,0L35,0z"/>
</g>
<g>
	<path class="st0" d="M52.8,33.8L51,32.5c-0.2-8.8-7.6-15.8-16.4-15.5C26.1,17.2,19.3,24,19,32.5l-1.8,1.3C17.1,33.9,17,34,17,34.2
		v5.6c0,0.2,0.1,0.3,0.2,0.4l2,1.4c0.1,0.1,0.2,0.1,0.3,0.1h2c0.3,0,0.5-0.2,0.5-0.5v-8.5c0,0,0,0,0,0c0.1-7.1,6-12.8,13.2-12.6
		c6.9,0.1,12.5,5.7,12.6,12.6c0,0,0,0,0,0.1v8.4c0,0.3,0.2,0.5,0.5,0.5h0.5v0.6c0,1.7-1.2,3.1-2.9,3.3c0.7-1.5,1-3.2,1-4.9v-7.8
		c0-6.7-5.4-12.1-12.1-12.1c-6.7,0-12.1,5.4-12.1,12.1v7.8C22.9,47.6,28.3,53,35,53c4.3,0,8.4-2.3,10.5-6.1h0c2.4,0,4.4-2,4.4-4.4
		v-0.6h0.5c0.1,0,0.2,0,0.3-0.1l2-1.4c0.1-0.1,0.2-0.3,0.2-0.4v-5.6C53,34,52.9,33.9,52.8,33.8L52.8,33.8z M35,22.1
		c6.1,0,11,4.9,11,11V36c-0.4,0-0.7,0.1-1.1,0.1c-3.9,0-7.5-2.1-9.4-5.5c-0.1-0.3-0.5-0.3-0.7-0.2c-0.1,0-0.1,0.1-0.2,0.2
		c-2,3.4-5.6,5.4-9.4,5.5c-0.4,0-0.7,0-1.1-0.1v-2.9C24,27.1,28.9,22.1,35,22.1L35,22.1z M35,51.9c-6.1,0-11-4.9-11-11v-3.8
		c0.4,0,0.7,0.1,1.1,0.1c4,0,7.7-2,9.9-5.2c2.2,3.3,5.9,5.2,9.9,5.2c0.4,0,0.7,0,1.1-0.1v3.8c0,1.7-0.4,3.4-1.2,4.9h-5
		c-0.2-0.7-0.9-1.2-1.6-1.2h-2.1c-1,0-1.7,0.8-1.7,1.7s0.8,1.7,1.7,1.7h2.1c0.7,0,1.4-0.5,1.6-1.2h4.4C42.2,50,38.7,51.9,35,51.9
		L35,51.9z M38.9,46.4c0,0.4-0.3,0.6-0.7,0.6h-2.1c-0.4,0-0.7-0.3-0.7-0.7c0-0.4,0.3-0.7,0.7-0.7l0,0h2.1
		C38.6,45.7,38.9,46,38.9,46.4C38.9,46.3,38.9,46.3,38.9,46.4C38.9,46.3,38.9,46.4,38.9,46.4z M21,40.8h-1.3l-1.7-1.2v-5.1l1.7-1.2
		H21L21,40.8z M35,19.1c-7.4,0-13.5,5.8-13.9,13.1h-1c0.4-8.2,7.4-14.6,15.6-14.2c7.7,0.4,13.8,6.5,14.2,14.2h-1
		C48.5,24.9,42.4,19.1,35,19.1L35,19.1z M51.9,39.6l-1.7,1.2H49v-7.4h1.3l1.7,1.2L51.9,39.6z"/>
</g>
</svg>
