<?xml version="1.0" encoding="utf-8"?>
<!-- Generator: Adobe Illustrator 21.0.1, SVG Export Plug-In . SVG Version: 6.00 Build 0)  -->
<svg version="1.1" id="Слой_1" xmlns="http://www.w3.org/2000/svg" xmlns:xlink="http://www.w3.org/1999/xlink" x="0px" y="0px"
	 viewBox="0 0 70 70" style="enable-background:new 0 0 70 70;" xml:space="preserve">
<style type="text/css">
	.st0{fill:#B0ABB3;}
</style>
<g>
	<path class="st0" d="M35,1c18.7,0,34,15.3,34,34S53.7,69,35,69S1,53.7,1,35S16.3,1,35,1 M35,0C15.7,0,0,15.7,0,35s15.7,35,35,35
		s35-15.7,35-35S54.3,0,35,0L35,0z"/>
</g>
<g id="Outline">
	<path class="st0" d="M42.9,39.3l-0.2,1.2c5.4,1,9.1,3.2,9.1,5.3c0,2.9-6.8,6-16.8,6s-16.8-3.1-16.8-6c0-2.1,3.7-4.3,9.1-5.3
		l-0.2-1.2C20.8,40.5,17,42.9,17,45.8c0,4,7.9,7.2,18,7.2s18-3.2,18-7.2C53,42.9,49.2,40.5,42.9,39.3z"/>
	<path class="st0" d="M21.8,45.8c0,3.1,6.8,4.8,13.2,4.8s13.2-1.7,13.2-4.8c0-1.9-2.6-3.5-7.1-4.3l-0.2,1.2c4.2,0.8,6.1,2.1,6.1,3.1
		c0,1.7-5.1,3.6-12,3.6s-12-1.9-12-3.6c0-1,1.9-2.3,6.1-3.1l-0.2-1.2C24.4,42.3,21.8,43.9,21.8,45.8z"/>
	<path class="st0" d="M31.3,43.6c-3.1,0.4-4.7,1.1-4.7,2.2c0,2.3,7.5,2.4,8.4,2.4c0.9,0,8.4-0.1,8.4-2.4c0-1.1-1.6-1.8-4.7-2.2
		l-0.1,1.2c2.5,0.3,3.4,0.8,3.6,1c-0.4,0.5-3,1.2-7.2,1.2s-6.7-0.7-7.2-1.2c0.2-0.2,1.2-0.7,3.6-1L31.3,43.6z"/>
	<path class="st0" d="M52.9,17.9c0.2-0.3,0.1-0.6-0.2-0.8C52.6,17,52.5,17,52.4,17H17.6c-0.3,0-0.6,0.3-0.6,0.6c0,0.1,0,0.2,0.1,0.3
		l10.4,15.6l3.4,5.7H29c-0.3,0-0.6,0.3-0.6,0.6c0,0.2,0.1,0.3,0.2,0.4l6,5.4c0.2,0.2,0.6,0.2,0.8,0l6-5.4c0.2-0.2,0.3-0.6,0-0.8
		c-0.1-0.1-0.3-0.2-0.4-0.2h-1.9l3.4-5.7L52.9,17.9z M51.3,18.2l-4.4,6.6H23.1l-4.4-6.6H51.3z M46.1,26l-4.4,6.6H28.3L23.9,26H46.1z
		 M37.5,39.5c-0.2,0.3-0.1,0.7,0.2,0.8c0.1,0.1,0.2,0.1,0.3,0.1h1.4l-4.4,4l-4.4-4H32c0.3,0,0.6-0.3,0.6-0.6c0-0.1,0-0.2-0.1-0.3
		l-3.4-5.7h11.9L37.5,39.5z"/>
	<path class="st0" d="M30.8,21.2H32v1.2h-1.2V21.2z"/>
	<path class="st0" d="M28.4,21.2h1.2v1.2h-1.2V21.2z"/>
	<path class="st0" d="M26,21.2h1.2v1.2H26V21.2z"/>
	<path class="st0" d="M33.2,21.2h1.2v1.2h-1.2V21.2z"/>
	<path class="st0" d="M35.6,21.2h1.2v1.2h-1.2V21.2z"/>
	<path class="st0" d="M38,21.2h1.2v1.2H38V21.2z"/>
	<path class="st0" d="M40.4,21.2h1.2v1.2h-1.2V21.2z"/>
	<path class="st0" d="M42.8,21.2H44v1.2h-1.2V21.2z"/>
	<path class="st0" d="M29.6,28.4h1.2v1.2h-1.2V28.4z"/>
	<path class="st0" d="M32,28.4h1.2v1.2H32V28.4z"/>
	<path class="st0" d="M34.4,28.4h1.2v1.2h-1.2V28.4z"/>
	<path class="st0" d="M36.8,28.4H38v1.2h-1.2V28.4z"/>
	<path class="st0" d="M39.2,28.4h1.2v1.2h-1.2V28.4z"/>
	<path class="st0" d="M32,35.6h1.2v1.2H32V35.6z"/>
	<path class="st0" d="M34.4,35.6h1.2v1.2h-1.2V35.6z"/>
	<path class="st0" d="M36.8,35.6H38v1.2h-1.2V35.6z"/>
</g>
</svg>
