<?xml version="1.0" encoding="utf-8"?>
<!-- Generator: Adobe Illustrator 21.0.1, SVG Export Plug-In . SVG Version: 6.00 Build 0)  -->
<svg version="1.1" id="Layer_1" xmlns="http://www.w3.org/2000/svg" xmlns:xlink="http://www.w3.org/1999/xlink" x="0px" y="0px"
	 viewBox="0 0 70 70" style="enable-background:new 0 0 70 70;" xml:space="preserve">
<style type="text/css">
	.st0{fill:#B0ABB3;}
</style>
<g>
	<g>
		<g>
			<path class="st0" d="M43.3,26.5c-0.8-0.8-1.9-1.3-3.1-1.3c-1.2,0-2.3,0.5-3.1,1.3c-0.2,0.2-0.2,0.6,0,0.8c0.2,0.2,0.6,0.2,0.8,0
				c0.6-0.6,1.4-0.9,2.3-0.9c0.9,0,1.7,0.3,2.3,0.9c1.3,1.3,1.3,3.3,0,4.6c-0.2,0.2-0.2,0.6,0,0.8c0.1,0.1,0.3,0.2,0.4,0.2
				c0.2,0,0.3-0.1,0.4-0.2C45,31,45,28.3,43.3,26.5z"/>
		</g>
	</g>
	<g>
		<g>
			<path class="st0" d="M45.5,24.5c-1.4-1.4-3.3-2.2-5.4-2.2c-2,0-3.9,0.8-5.4,2.2c-0.2,0.2-0.2,0.6,0,0.8c0.2,0.2,0.6,0.2,0.8,0
				c1.2-1.2,2.8-1.9,4.5-1.9c1.7,0,3.3,0.7,4.5,1.9c2.5,2.5,2.5,6.6,0,9.1c-0.2,0.2-0.2,0.6,0,0.8c0.1,0.1,0.3,0.2,0.4,0.2
				c0.2,0,0.3-0.1,0.4-0.2C48.4,32.3,48.4,27.5,45.5,24.5z"/>
		</g>
	</g>
	<g>
		<g>
			<path class="st0" d="M47.7,22.3c-2-2-4.7-3.1-7.6-3.1s-5.5,1.1-7.6,3.1c-0.2,0.2-0.2,0.6,0,0.8c0.2,0.2,0.6,0.2,0.8,0
				c1.8-1.8,4.2-2.8,6.7-2.8c2.5,0,4.9,1,6.7,2.8c3.7,3.7,3.7,9.8,0,13.5c-0.2,0.2-0.2,0.6,0,0.8c0.1,0.1,0.3,0.2,0.4,0.2
				c0.2,0,0.3-0.1,0.4-0.2C51.8,33.3,51.8,26.5,47.7,22.3z"/>
		</g>
	</g>
	<g>
		<g>
			<path class="st0" d="M52.3,44.5l-5.2-5.2c-1-1-2.5-1-3.5,0l-2.4,2.4c-0.3,0.3-0.8,0.5-1.2,0.5c-0.5,0-0.9-0.2-1.2-0.5L28.3,31.2
				c-0.7-0.7-0.7-1.8,0-2.4l1.1-1.1c0,0,0,0,0,0c0,0,0,0,0,0l1.4-1.4c0.5-0.5,0.7-1.1,0.7-1.7s-0.3-1.3-0.7-1.7l-5.2-5.2
				c-0.5-0.5-1.1-0.7-1.7-0.7c-0.7,0-1.3,0.3-1.7,0.7l-2.7,2.7C17.8,21.9,17,24,17,26.2s0.8,4.2,2.4,5.8l9.3,9.3
				c0.2,0.2,0.6,0.2,0.8,0c0.2-0.2,0.2-0.6,0-0.8l-9.3-9.3c-1.3-1.3-2-3.1-2-4.9s0.7-3.6,2-4.9l0.9-0.9l7,7L27.4,28
				c-1.1,1.1-1.1,3,0,4.1L38,42.6c0.5,0.5,1.3,0.8,2,0.8c0,0,0,0,0,0c0.8,0,1.5-0.3,2-0.8l0.6-0.6l7,7l-0.9,0.9
				c-1.3,1.3-3.1,2-4.9,2s-3.6-0.7-4.9-2l-6.4-6.4c-0.2-0.2-0.6-0.2-0.8,0c-0.2,0.2-0.2,0.6,0,0.8l6.4,6.4c1.5,1.5,3.6,2.4,5.8,2.4
				c2.2,0,4.2-0.8,5.8-2.4l1.3-1.3c0,0,0,0,0,0c0,0,0,0,0,0l1.4-1.4C53.2,47,53.2,45.4,52.3,44.5z M21.9,19.5l1-1
				c0.2-0.2,0.6-0.4,0.9-0.4s0.7,0.1,0.9,0.4l5.2,5.2c0.2,0.2,0.4,0.6,0.4,0.9c0,0.3-0.1,0.7-0.4,0.9l-1,1L21.9,19.5z M51.5,47.1
				l-1,1l-7-7l1-1c0.5-0.5,1.3-0.5,1.8,0l5.2,5.2C51.9,45.8,51.9,46.6,51.5,47.1z"/>
		</g>
	</g>
</g>
<g>
	<path class="st0" d="M60,1c5,0,9,4,9,9v50c0,5-4,9-9,9H10c-5,0-9-4-9-9V10c0-5,4-9,9-9H60 M60,0H10C4.5,0,0,4.5,0,10v50
		c0,5.5,4.5,10,10,10h50c5.5,0,10-4.5,10-10V10C70,4.5,65.5,0,60,0L60,0z"/>
</g>
</svg>
