<?xml version="1.0" encoding="utf-8"?>
<!-- Generator: Adobe Illustrator 21.0.1, SVG Export Plug-In . SVG Version: 6.00 Build 0)  -->
<svg version="1.1" id="Слой_1" xmlns="http://www.w3.org/2000/svg" xmlns:xlink="http://www.w3.org/1999/xlink" x="0px" y="0px"
	 viewBox="0 0 70 70" style="enable-background:new 0 0 70 70;" xml:space="preserve">
<style type="text/css">
	.st0{fill:#B0ABB3;}
</style>
<g>
	<path class="st0" d="M40.8,35.4c0-0.7-0.6-1.3-1.3-1.3h-1c-0.7,0-1.3,0.6-1.3,1.3v1c0,0.7,0.6,1.3,1.3,1.3h1c0.7,0,1.3-0.6,1.3-1.3
		V35.4z M39.8,36.4c0,0.1-0.1,0.2-0.2,0.2h-1c-0.1,0-0.2-0.1-0.2-0.2v-1c0-0.1,0.1-0.2,0.2-0.2h1c0.1,0,0.2,0.1,0.2,0.2V36.4z"/>
	<path class="st0" d="M45.3,35.4c0-0.7-0.6-1.3-1.3-1.3h-1c-0.7,0-1.3,0.6-1.3,1.3v1c0,0.7,0.6,1.3,1.3,1.3h1c0.7,0,1.3-0.6,1.3-1.3
		V35.4z M44.2,36.4c0,0.1-0.1,0.2-0.2,0.2h-1c-0.1,0-0.2-0.1-0.2-0.2v-1c0-0.1,0.1-0.2,0.2-0.2h1c0.1,0,0.2,0.1,0.2,0.2V36.4z"/>
	<path class="st0" d="M49.7,35.4c0-0.7-0.6-1.3-1.3-1.3h-1c-0.7,0-1.3,0.6-1.3,1.3v1c0,0.7,0.6,1.3,1.3,1.3h1c0.7,0,1.3-0.6,1.3-1.3
		V35.4z M48.7,36.4c0,0.1-0.1,0.2-0.2,0.2h-1c-0.1,0-0.2-0.1-0.2-0.2v-1c0-0.1,0.1-0.2,0.2-0.2h1c0.1,0,0.2,0.1,0.2,0.2V36.4z"/>
	<path class="st0" d="M40.8,39.5c0-0.7-0.6-1.3-1.3-1.3h-1c-0.7,0-1.3,0.6-1.3,1.3v1c0,0.7,0.6,1.3,1.3,1.3h1c0.7,0,1.3-0.6,1.3-1.3
		V39.5z M39.8,40.6c0,0.1-0.1,0.2-0.2,0.2h-1c-0.1,0-0.2-0.1-0.2-0.2v-1c0-0.1,0.1-0.2,0.2-0.2h1c0.1,0,0.2,0.1,0.2,0.2V40.6z"/>
	<path class="st0" d="M45.3,39.5c0-0.7-0.6-1.3-1.3-1.3h-1c-0.7,0-1.3,0.6-1.3,1.3v1c0,0.7,0.6,1.3,1.3,1.3h1c0.7,0,1.3-0.6,1.3-1.3
		V39.5z M44.2,40.6c0,0.1-0.1,0.2-0.2,0.2h-1c-0.1,0-0.2-0.1-0.2-0.2v-1c0-0.1,0.1-0.2,0.2-0.2h1c0.1,0,0.2,0.1,0.2,0.2V40.6z"/>
	<path class="st0" d="M49.7,39.5c0-0.7-0.6-1.3-1.3-1.3h-1c-0.7,0-1.3,0.6-1.3,1.3v1c0,0.7,0.6,1.3,1.3,1.3h1c0.7,0,1.3-0.6,1.3-1.3
		V39.5z M48.7,40.6c0,0.1-0.1,0.2-0.2,0.2h-1c-0.1,0-0.2-0.1-0.2-0.2v-1c0-0.1,0.1-0.2,0.2-0.2h1c0.1,0,0.2,0.1,0.2,0.2V40.6z"/>
	<path class="st0" d="M39.6,42.4h-1c-0.7,0-1.3,0.6-1.3,1.3v1c0,0.7,0.6,1.3,1.3,1.3h1c0.7,0,1.3-0.6,1.3-1.3v-1
		C40.8,42.9,40.3,42.4,39.6,42.4z M39.8,44.7c0,0.1-0.1,0.2-0.2,0.2h-1c-0.1,0-0.2-0.1-0.2-0.2v-1c0-0.1,0.1-0.2,0.2-0.2h1
		c0.1,0,0.2,0.1,0.2,0.2V44.7z"/>
	<path class="st0" d="M44,42.4h-1c-0.7,0-1.3,0.6-1.3,1.3v1c0,0.7,0.6,1.3,1.3,1.3h1c0.7,0,1.3-0.6,1.3-1.3v-1
		C45.3,42.9,44.7,42.4,44,42.4z M44.2,44.7c0,0.1-0.1,0.2-0.2,0.2h-1c-0.1,0-0.2-0.1-0.2-0.2v-1c0-0.1,0.1-0.2,0.2-0.2h1
		c0.1,0,0.2,0.1,0.2,0.2V44.7z"/>
	<path class="st0" d="M48.5,42.4h-1c-0.7,0-1.3,0.6-1.3,1.3v1c0,0.7,0.6,1.3,1.3,1.3h1c0.7,0,1.3-0.6,1.3-1.3v-1
		C49.7,42.9,49.2,42.4,48.5,42.4z M48.7,44.7c0,0.1-0.1,0.2-0.2,0.2h-1c-0.1,0-0.2-0.1-0.2-0.2v-1c0-0.1,0.1-0.2,0.2-0.2h1
		c0.1,0,0.2,0.1,0.2,0.2V44.7z"/>
	<path class="st0" d="M52.5,44.5c0.3,0,0.5-0.2,0.5-0.5V22.1c0-1.9-1.6-3.5-3.5-3.5H26.7c-1.9,0-3.5,1.6-3.5,3.5v12.6
		c-1.1-0.4-2.1-0.1-3,0.7c-0.7,0.6-1,1.2-1,1.9c0,0-0.8,1.7-0.8,1.7c-0.2-0.5-0.4-1.1-0.4-1.8c0-0.7,0.3-1.7,1.4-2.8
		c0.6-0.6,1.3-0.9,2.1-1.1c0.3-0.1,0.5-0.3,0.4-0.6c-0.1-0.3-0.3-0.5-0.6-0.4c-0.9,0.2-1.8,0.6-2.6,1.3c-1.4,1.3-1.7,2.6-1.7,3.5
		c0,1.3,0.5,2.3,1,3l-0.2,0.6c-0.2,0.5-0.2,1.1,0,1.6c0.2,0.5,0.5,0.8,1,1c-0.2,0.5-0.1,1,0.1,1.5c0.2,0.5,0.5,0.8,1,1l-0.2,0.5
		c-0.2,0.5-0.2,1.1,0,1.6c0.2,0.5,0.6,0.8,1,1.1c-0.2,1,0.3,1.9,1.3,2.3c0.8,0.3,1.7,0,2.1-0.3c0.9,0.4,1.8,0.7,2.9,0.7
		c0.2,0,22.6,0,22.6,0c1.9,0,3.5-1.6,3.5-3.5v-2.3c0-0.3-0.2-0.5-0.5-0.5c-0.3,0-0.5,0.2-0.5,0.5v2.3c0,1.3-1.1,2.4-2.4,2.4h-19
		c0.5-0.4,1.2-1,1.5-1.7c2.1-0.4,3.7-2.3,3.7-4.6c0-1-0.1-2.1-0.2-3.3c-0.2-1.7-0.4-3.8-0.4-6.5c0-2.7,0.2-4.8,0.4-6.5
		c0.1-0.9,0.2-1.7,0.2-2.5c0-0.3-0.2-0.5-0.5-0.6c-0.3,0-0.5,0.2-0.6,0.5c0,0.7-0.1,1.5-0.2,2.4c-0.2,1.7-0.4,3.8-0.4,6.6
		c0,2.8,0.2,4.9,0.4,6.6c0.1,1.2,0.2,2.3,0.2,3.2c0,1-0.4,1.9-1.1,2.6c-0.7,0.7-1.6,1-2.6,1c-1,0-1.9-0.4-2.6-1
		c-0.7-0.7-1.1-1.6-1.1-2.6c0-1,0.1-2,0.2-3.2c0.2-1.7,0.4-3.8,0.4-6.6c0-2.8-0.2-4.9-0.4-6.6c-0.1-1.2-0.2-2.3-0.2-3.2
		c0-1,0.4-1.9,1.1-2.6c0.7-0.7,1.6-1,2.6-1c1.6,0,3,1,3.4,2.4c0.1,0.3,0.4,0.4,0.7,0.3c0.3-0.1,0.4-0.4,0.3-0.7
		c-0.6-1.9-2.4-3.2-4.4-3.2c-2.6,0-4.7,2.1-4.7,4.7c0,1,0.1,2.1,0.2,3.3c0.2,1.7,0.4,3.8,0.4,6.5c0,2.7-0.2,4.8-0.4,6.5
		c-0.1,1.2-0.2,2.3-0.2,3.3c0,1.6,0.8,3,1.9,3.8c-0.4,0.2-0.9,0.3-1.4,0.3c-0.6,0-1.1-0.1-1.5-0.3l0.4-0.9c0.4-1-0.1-2.2-1-2.6
		c0.1-0.6,0-1.2-0.4-1.7V22.1c0-1.3,1.1-2.4,2.4-2.4h22.8c1.3,0,2.4,1.1,2.4,2.4V44C51.9,44.3,52.2,44.5,52.5,44.5z M23.3,35.9v3.7
		c-0.1-0.1-0.3-0.2-0.4-0.3c0.4-1-0.2-2.2-1.2-2.6c-0.3-0.1-0.7-0.2-1.1-0.1C20.7,36.5,21.9,35.2,23.3,35.9z M18.7,41.3l1.2-3
		c0.1-0.3,0.5-0.9,1.3-0.6c0.5,0.2,0.8,0.8,0.6,1.3l0,0.1c-0.8,0-1.5,0.5-1.8,1.3l-0.9,2.1C18.7,42.3,18.5,41.8,18.7,41.3z
		 M19.8,43.8l1.2-3c0.2-0.5,0.8-0.8,1.3-0.6c0.5,0.2,0.8,0.8,0.6,1.3l-0.3,0.7c-0.8,0-1.5,0.5-1.8,1.3l-0.6,1.5
		C19.8,44.8,19.6,44.3,19.8,43.8z M20.5,47l1.2-3c0.2-0.5,0.8-0.8,1.3-0.6c0.5,0.2,0.7,0.7,0.6,1.1c-1-0.1-1.6,0.8-1.8,1.3l-1,2.4
		C20.5,48,20.4,47.5,20.5,47z M26.9,49.7c1,0,1.8-0.3,2.5-0.8c0.4,0.2,0.9,0.3,1.4,0.3c-0.6,0.8-1.8,1.7-3.8,1.7
		c-0.9,0-1.6-0.2-2.3-0.5l0.4-1.1C25.6,49.6,26.2,49.7,26.9,49.7z M24.8,47l-1.2,3c-0.2,0.5-0.8,0.8-1.3,0.6
		c-0.5-0.2-0.8-0.8-0.6-1.3l1.2-3c0.2-0.4,0.7-0.8,1.3-0.6C24.8,45.9,25,46.5,24.8,47z"/>
</g>
<g>
	<path class="st0" d="M60,1c5,0,9,4,9,9v50c0,5-4,9-9,9H10c-5,0-9-4-9-9V10c0-5,4-9,9-9H60 M60,0H10C4.5,0,0,4.5,0,10v50
		c0,5.5,4.5,10,10,10h50c5.5,0,10-4.5,10-10V10C70,4.5,65.5,0,60,0L60,0z"/>
</g>
</svg>
