<?xml version="1.0" encoding="utf-8"?>
<!-- Generator: Adobe Illustrator 21.0.1, SVG Export Plug-In . SVG Version: 6.00 Build 0)  -->
<svg version="1.1" id="Слой_1" xmlns="http://www.w3.org/2000/svg" xmlns:xlink="http://www.w3.org/1999/xlink" x="0px" y="0px"
	 viewBox="0 0 70 70" style="enable-background:new 0 0 70 70;" xml:space="preserve">
<style type="text/css">
	.st0{fill:#B0ABB3;}
</style>
<g>
	<path class="st0" d="M60,1c5,0,9,4,9,9v50c0,5-4,9-9,9H10c-5,0-9-4-9-9V10c0-5,4-9,9-9H60 M60,0H10C4.5,0,0,4.5,0,10v50
		c0,5.5,4.5,10,10,10h50c5.5,0,10-4.5,10-10V10C70,4.5,65.5,0,60,0L60,0z"/>
</g>
<path id="Forma_1_копия" class="st0" d="M48.3,42.5L45,47.3l-2.4-1.9c-0.2-0.2-0.6-0.2-0.8,0c-0.2,0.2-0.2,0.6,0,0.8
	c0,0,0.1,0.1,0.1,0.1l2.9,2.4c0.1,0.1,0.2,0.1,0.4,0.1c0,0,0.1,0,0.1,0c0.2,0,0.3-0.1,0.4-0.3l3.7-5.4c0.2-0.3,0.1-0.7-0.2-0.8
	C48.8,42.2,48.5,42.2,48.3,42.5z M35.1,33.1V27c0-0.3-0.3-0.6-0.6-0.6s-0.6,0.3-0.6,0.6l0,0v6.1c-0.9,0.2-1.5,0.9-1.7,1.8h-4.3
	c-0.3,0-0.6,0.3-0.6,0.6s0.3,0.6,0.6,0.6h4.3c0.4,1.3,1.7,2,3,1.6c1.3-0.4,2-1.7,1.6-3C36.6,33.9,35.9,33.3,35.1,33.1z M34.5,36.6
	c-0.7,0-1.2-0.5-1.2-1.2c0-0.7,0.5-1.2,1.2-1.2c0.7,0,1.2,0.5,1.2,1.2C35.7,36.1,35.2,36.6,34.5,36.6C34.5,36.6,34.5,36.6,34.5,36.6
	z M35,22.9c0.3,0,0.6-0.3,0.6-0.6l0,0v-0.6c0-0.3-0.3-0.6-0.6-0.6s-0.6,0.3-0.6,0.6v0.6C34.4,22.7,34.7,22.9,35,22.9
	C35,22.9,35,22.9,35,22.9z M35,46.9c-0.3,0-0.6,0.3-0.6,0.6l0,0v0.6c0,0.3,0.3,0.6,0.6,0.6s0.6-0.3,0.6-0.6v-0.6
	C35.6,47.2,35.3,46.9,35,46.9C35,46.9,35,46.9,35,46.9z M47.6,35.5h0.6c0.3,0,0.6-0.3,0.6-0.6l0,0c0-0.3-0.3-0.6-0.6-0.6h0h-0.6
	c-0.3,0-0.6,0.3-0.6,0.6l0,0C47,35.3,47.3,35.5,47.6,35.5L47.6,35.5z M22.4,34.3h-0.6c-0.3,0-0.6,0.3-0.6,0.6l0,0
	c0,0.3,0.3,0.6,0.6,0.6c0,0,0,0,0,0h0.6c0.3,0,0.6-0.3,0.6-0.6l0,0C23,34.6,22.7,34.3,22.4,34.3C22.4,34.3,22.4,34.3,22.4,34.3
	L22.4,34.3z M43.9,26.6c0.2,0,0.3-0.1,0.4-0.2l0.4-0.4c0.2-0.2,0.2-0.6,0-0.8c0,0,0,0,0,0c-0.2-0.2-0.6-0.2-0.8,0c0,0,0,0,0,0
	l-0.4,0.4c-0.2,0.2-0.2,0.6,0,0.8c0,0,0,0,0,0C43.6,26.6,43.7,26.6,43.9,26.6L43.9,26.6z M25.7,43.4l-0.4,0.4
	c-0.3,0.2-0.3,0.6-0.1,0.8c0.2,0.3,0.6,0.3,0.8,0.1c0,0,0.1-0.1,0.1-0.1l0.4-0.4c0.2-0.2,0.2-0.6,0-0.8c0,0,0,0,0,0
	C26.3,43.2,25.9,43.2,25.7,43.4L25.7,43.4z M26.1,25.2c-0.2-0.2-0.6-0.2-0.8,0c0,0,0,0,0,0c-0.2,0.2-0.2,0.6,0,0.8c0,0,0,0,0,0
	l0.4,0.4c0.2,0.2,0.6,0.2,0.8,0c0,0,0,0,0,0c0.2-0.2,0.2-0.6,0-0.8c0,0,0,0,0,0L26.1,25.2z M53,35c0-10-8.1-18-18-18s-18,8-18,18
	S25,53,35,53c2.1,0,4.2-0.4,6.2-1.1c3.7,2.2,8.5,1,10.7-2.7c1.5-2.5,1.5-5.5,0-8C52.6,39.2,53,37.1,53,35z M40,51
	c-8.9,2.8-18.3-2.1-21.1-11S21.1,21.7,30,19c8.9-2.8,18.3,2.1,21.1,11c1,3.3,1,6.8,0,10.1c0,0-0.1-0.1-0.1-0.1
	c-0.1-0.1-0.2-0.2-0.3-0.3s-0.2-0.2-0.3-0.3s-0.2-0.2-0.3-0.2s-0.2-0.2-0.3-0.3c-0.1-0.1-0.2-0.1-0.3-0.2c-0.1-0.1-0.2-0.1-0.4-0.2
	c-0.1-0.1-0.2-0.1-0.3-0.2s-0.2-0.1-0.4-0.2s-0.3-0.1-0.4-0.1s-0.2-0.1-0.4-0.1l-0.4-0.1c-0.1,0-0.2-0.1-0.3-0.1
	c-0.2,0-0.4-0.1-0.5-0.1c-0.1,0-0.2,0-0.3,0c-0.3,0-0.5,0-0.8,0c-4.3,0-7.8,3.5-7.8,7.8c0,0.3,0,0.5,0,0.8c0,0.1,0,0.2,0,0.3
	c0,0.2,0,0.4,0.1,0.5c0,0.1,0.1,0.2,0.1,0.3c0,0.1,0.1,0.3,0.1,0.4s0.1,0.2,0.1,0.4s0.1,0.3,0.1,0.4s0.1,0.3,0.2,0.4
	s0.1,0.2,0.2,0.3c0.1,0.1,0.1,0.3,0.2,0.4c0.1,0.1,0.1,0.2,0.2,0.3c0.1,0.1,0.2,0.2,0.3,0.3s0.2,0.2,0.2,0.3s0.2,0.2,0.3,0.3
	s0.2,0.2,0.3,0.3C39.9,50.9,40,51,40,51z M45.2,51.8c-1.3,0-2.5-0.4-3.6-1.1c-0.2-0.1-0.4-0.3-0.6-0.5c0,0-0.1-0.1-0.1-0.1
	c-0.1-0.1-0.3-0.3-0.4-0.4c-0.1-0.1-0.1-0.1-0.2-0.2c-0.1-0.1-0.2-0.3-0.3-0.4c-0.1-0.1-0.1-0.1-0.2-0.2c-0.1-0.2-0.2-0.4-0.3-0.5
	l-0.1-0.1c-0.1-0.2-0.2-0.4-0.3-0.6c0-0.1-0.1-0.2-0.1-0.2c-0.1-0.2-0.1-0.3-0.2-0.5c0-0.1,0-0.2-0.1-0.3c0-0.2-0.1-0.3-0.1-0.5
	c0-0.1,0-0.1,0-0.2c0-0.3,0-0.5,0-0.8c0-3.6,3-6.6,6.6-6.6c0.3,0,0.5,0,0.8,0l0.2,0c0.2,0,0.3,0.1,0.5,0.1c0.1,0,0.2,0,0.3,0.1
	c0.2,0,0.3,0.1,0.5,0.1l0.2,0.1c0.2,0.1,0.4,0.2,0.6,0.3c0.1,0,0.1,0,0.2,0.1c0.2,0.1,0.4,0.2,0.5,0.3c0.1,0,0.1,0.1,0.2,0.2
	c0.1,0.1,0.3,0.2,0.4,0.3c0.1,0.1,0.1,0.1,0.2,0.2c0.1,0.1,0.3,0.3,0.4,0.4c0,0,0.1,0.1,0.1,0.1c0.2,0.2,0.3,0.4,0.5,0.6
	c2,3,1.2,7.1-1.9,9.1C47.8,51.4,46.5,51.8,45.2,51.8z"/>
</svg>
