<?xml version="1.0" encoding="utf-8"?>
<!-- Generator: Adobe Illustrator 21.0.1, SVG Export Plug-In . SVG Version: 6.00 Build 0)  -->
<svg version="1.1" id="Capa_1" xmlns="http://www.w3.org/2000/svg" xmlns:xlink="http://www.w3.org/1999/xlink" x="0px" y="0px"
	 viewBox="0 0 70 70" style="enable-background:new 0 0 70 70;" xml:space="preserve">
<style type="text/css">
	.st0{fill:#B0ABB3;}
</style>
<g>
	<path class="st0" d="M37.3,34.4C37.3,34.4,37.3,34.4,37.3,34.4c0.1,0,0.2,0,0.2,0c0.2,0,0.4-0.1,0.6-0.2c0.2-0.2,0.4-0.4,0.4-0.7
		c0,0,0,0,0,0l0-0.9l0.1-1.3l0.8-1.1l0.5-0.8c0,0,0,0,0,0c0.2-0.3,0.2-0.5,0.1-0.8c-0.1-0.3-0.3-0.5-0.6-0.6c0,0,0,0,0,0l-2.2-0.8
		l-1.5-1.8c0,0,0,0,0,0c-0.2-0.2-0.4-0.3-0.7-0.3c0,0-0.1,0-0.1,0c-0.2,0-0.5,0.1-0.7,0.3c0,0,0,0,0,0l-1.5,1.8L30.6,28c0,0,0,0,0,0
		c-0.3,0.1-0.5,0.3-0.6,0.6c-0.1,0.3,0,0.6,0.1,0.8c0,0,0,0,0,0l0.6,0.9c0,0,0,0,0,0l0.7,1l0.1,1.3l0,0.9c0,0,0,0,0,0
		c0,0.3,0.2,0.5,0.4,0.7c0.2,0.2,0.5,0.2,0.8,0.2c0,0,0,0,0,0l2.3-0.6L37.3,34.4z M35.1,26.1L35.1,26.1
		C35.1,26.1,35.1,26.1,35.1,26.1L35.1,26.1z M32.5,33.4l0-0.8l-0.1-1.5c0-0.1,0-0.2-0.1-0.3l-0.8-1.1l-0.5-0.8l2.2-0.8
		c0.1,0,0.2-0.1,0.2-0.2l1.5-1.8l1.5,1.8c0.1,0.1,0.1,0.1,0.2,0.2l2.2,0.8l-0.4,0.7l-0.9,1.2c-0.1,0.1-0.1,0.2-0.1,0.3l-0.1,1.5
		l0,0.8l-2.3-0.6c0,0-0.1,0-0.1,0s-0.1,0-0.1,0L32.5,33.4z"/>
	<path class="st0" d="M47.9,28.4c-0.2-2.3-1-4.5-2.3-6.2C43.3,18.8,39.5,17,35,17c-2.5,0-4.7,0.5-6.6,1.6c-1.8,1-3.3,2.4-4.4,4.2
		c-0.2,0.2-0.1,0.6,0.2,0.7c0.2,0.2,0.6,0.1,0.7-0.2c2.1-3.4,5.7-5.3,10.2-5.3c4.2,0,7.7,1.7,9.8,4.7c2.4,3.4,2.8,8,1.2,12.6
		c-1.3,3.6-4.8,7.5-7.9,10.9c-0.2,0.2-1.8,2-2,2.2c-0.2,0.3-0.8,0.9-1,0.9c-0.2,0-2.8-3-3-3.2c-3.1-3.4-6.6-7.2-7.9-10.9
		c-1.2-3.4-1.3-6.9-0.2-9.9c0.1-0.3,0-0.6-0.3-0.7c-0.3-0.1-0.6,0-0.7,0.3c-1.2,3.2-1.1,7,0.2,10.6c1.4,3.8,4.9,7.7,8.1,11.1h-4
		c-0.2,0-0.7,0.1-0.9,0.7l-1.3,4.4c-0.1,0.2,0,0.5,0.1,0.7c0.2,0.2,0.5,0.4,0.8,0.4h4.9c0.3,0,0.5-0.2,0.5-0.5s-0.2-0.5-0.5-0.5H26
		l1.2-4.1h4.8c0.4,0.4,0.8,0.9,1.1,1.3c0.7,0.8,1.2,1.3,1.8,1.3h0c0.6,0,1.1-0.5,1.8-1.3c0.4-0.4,0.7-0.8,1.1-1.3h4.9l1.2,4.1H33.2
		c-0.3,0-0.5,0.2-0.5,0.5s0.2,0.5,0.5,0.5h11.1c0.3,0,0.6-0.1,0.8-0.4c0.1-0.2,0.2-0.4,0.1-0.7l-1.3-4.4c-0.2-0.7-0.7-0.7-0.9-0.7
		h-4c3.2-3.4,6.7-7.3,8.1-11.1C47.8,33.3,48.2,30.8,47.9,28.4L47.9,28.4z"/>
	<path class="st0" d="M44,29.8c0-5-4.1-9-9-9c-5,0-9,4.1-9,9c0,5,4.1,9,9,9C40,38.8,44,34.7,44,29.8z M27,29.8c0-4.4,3.6-8,8-8
		c4.4,0,8,3.6,8,8c0,4.4-3.6,8-8,8C30.6,37.7,27,34.2,27,29.8L27,29.8z"/>
</g>
<g>
	<path class="st0" d="M60,1c5,0,9,4,9,9v50c0,5-4,9-9,9H10c-5,0-9-4-9-9V10c0-5,4-9,9-9H60 M60,0H10C4.5,0,0,4.5,0,10v50
		c0,5.5,4.5,10,10,10h50c5.5,0,10-4.5,10-10V10C70,4.5,65.5,0,60,0L60,0z"/>
</g>
</svg>
