<?xml version="1.0" encoding="utf-8"?>
<!-- Generator: Adobe Illustrator 21.0.1, SVG Export Plug-In . SVG Version: 6.00 Build 0)  -->
<svg version="1.1" id="Icons" xmlns="http://www.w3.org/2000/svg" xmlns:xlink="http://www.w3.org/1999/xlink" x="0px" y="0px"
	 viewBox="0 0 70 70" style="enable-background:new 0 0 70 70;" xml:space="preserve">
<style type="text/css">
	.st0{fill:#B9ECA0;}
	.st1{fill:#3D4753;}
</style>
<circle class="st0" cx="25" cy="25" r="15"/>
<g>
	<path class="st1" d="M21.9,43.1c-0.2,0-0.4-0.1-0.5-0.2c-0.5-0.5-0.9-1.1-1.4-1.6c-0.2-0.3-0.2-0.8,0.1-1c0.3-0.2,0.8-0.2,1,0.1
		l0,0c0.4,0.5,0.9,1,1.3,1.6c0.3,0.3,0.2,0.7-0.1,1C22.3,43,22.1,43.1,21.9,43.1z"/>
	<path class="st1" d="M49.6,60c-5.2,0-12.2-3.2-19.3-8.8c-0.3-0.2-0.4-0.7-0.1-1c0.2-0.3,0.7-0.4,1-0.1c6.7,5.3,13.6,8.5,18.4,8.5
		c1.7,0.1,3.4-0.5,4.6-1.6l4.1-4.1c0.2-0.2,0.3-0.4,0.3-0.6c0-0.2-0.1-0.5-0.3-0.6l-9.9-9.9c-0.3-0.3-0.9-0.3-1.3,0l-3,3
		c-2.4,2.4-8.4,0.1-13.7-5.1s-7.5-11.3-5.1-13.7l3-3c0.3-0.3,0.3-0.9,0-1.3l-9.9-9.9c-0.2-0.2-0.4-0.3-0.6-0.3l0,0
		c-0.2,0-0.5,0.1-0.6,0.3L13,15.8c-3.4,3.4-1.3,11.6,5,20.6c0.2,0.3,0.2,0.8-0.2,1c-0.3,0.2-0.8,0.2-1-0.2C10,27.5,8.1,18.7,12,14.8
		l4.1-4.1c0.4-0.4,1-0.7,1.6-0.7h0c0.6,0,1.2,0.2,1.6,0.7l9.9,9.9c0.9,0.9,0.9,2.4,0,3.3l-3,3c-1.5,1.5,0.2,6.7,5.1,11.7
		s10.1,6.7,11.7,5.1l3-3c0.9-0.9,2.4-0.9,3.3,0l9.9,9.9c0.4,0.4,0.7,1,0.7,1.6c0,0.6-0.2,1.2-0.7,1.6L55.2,58
		C53.7,59.4,51.7,60.1,49.6,60z"/>
	<path class="st1" d="M26.9,48.1c-0.2,0-0.3-0.1-0.5-0.2c-0.5-0.5-1-1-1.6-1.5c-0.3-0.3-0.3-0.7-0.1-1c0.3-0.3,0.7-0.3,1-0.1
		c0,0,0,0,0.1,0.1c0.5,0.5,1,1,1.5,1.4c0.3,0.3,0.3,0.7,0.1,1C27.3,48,27.1,48.1,26.9,48.1L26.9,48.1z"/>
	<path class="st1" d="M25.7,27.1c-0.2,0-0.4-0.1-0.5-0.2L13.1,14.7c-0.3-0.3-0.3-0.7,0-1c0.3-0.3,0.7-0.3,1,0l12.2,12.2
		c0.3,0.3,0.3,0.7,0,1C26.1,27,25.9,27.1,25.7,27.1L25.7,27.1z"/>
	<path class="st1" d="M55.8,57.1c-0.2,0-0.4-0.1-0.5-0.2L43.1,44.8c-0.3-0.3-0.3-0.7,0-1c0.3-0.3,0.7-0.3,1,0l12.2,12.2
		c0.3,0.3,0.3,0.7,0,1C56.1,57.1,56,57.1,55.8,57.1z"/>
	<path class="st1" d="M59.3,33.5c-0.4,0-0.7-0.3-0.7-0.7c0-11.8-9.6-21.3-21.3-21.3c-0.4,0-0.7-0.3-0.7-0.7c0-0.4,0.3-0.7,0.7-0.7
		C49.8,10,60,20.2,60,32.8C60,33.2,59.7,33.5,59.3,33.5z"/>
	<path class="st1" d="M51.4,33.5c-0.4,0-0.7-0.3-0.7-0.7c0-7.4-6-13.5-13.5-13.5c-0.4,0-0.7-0.3-0.7-0.7c0-0.4,0.3-0.7,0.7-0.7
		c8.2,0,14.9,6.7,14.9,14.9C52.1,33.2,51.8,33.5,51.4,33.5z"/>
	<path class="st1" d="M43.6,33.5c-0.4,0-0.7-0.3-0.7-0.7c0-3.1-2.5-5.6-5.6-5.6c-0.4,0-0.7-0.3-0.7-0.7s0.3-0.7,0.7-0.7
		c3.9,0,7.1,3.2,7.1,7.1C44.3,33.2,44,33.5,43.6,33.5z"/>
</g>
</svg>
