<?xml version="1.0" encoding="utf-8"?>
<!-- Generator: Adobe Illustrator 21.0.1, SVG Export Plug-In . SVG Version: 6.00 Build 0)  -->
<svg version="1.1" id="icon" xmlns="http://www.w3.org/2000/svg" xmlns:xlink="http://www.w3.org/1999/xlink" x="0px" y="0px"
	 viewBox="0 0 100 100" style="enable-background:new 0 0 100 100;" xml:space="preserve">
<style type="text/css">
	.st0{fill:#FFFFFF;}
	.st1{fill:#E1B378;}
	.st2{fill:#FFC78A;}
	.st3{fill:#2F3A5A;}
	.st4{fill:#E8C79C;}
	.st5{fill:#D0AA79;}
	.st6{fill:#9297AB;}
	.st7{fill:#84879C;}
	.st8{fill:#F0F5F9;}
</style>
<circle class="st0" cx="50" cy="50" r="50"/>
<g>
	<path class="st1" d="M33.8,21h48.9v46.2H33.8V21z"/>
	<path class="st2" d="M82.7,21v2.3H35.5v43.9h-1.7V21H82.7z"/>
	<path class="st3" d="M82.7,67.7H33.8c-0.3,0-0.5-0.2-0.5-0.5V21c0-0.3,0.2-0.5,0.5-0.5h48.9c0.3,0,0.5,0.2,0.5,0.5v46.2
		C83.3,67.5,83,67.7,82.7,67.7z M34.4,66.6h47.8V21.6H34.4V66.6z"/>
	<path class="st4" d="M83.8,67.1c-0.7-0.8-1.9-1.1-2.9-0.7L60.4,72L47,67.9l15.8,1.6c1.5,0.2,2.9-0.4,3.8-1.5
		c1.8-2.3-0.6-4.3-1.4-4.4c-1.1-0.2-8.2,0-19.8-4.3s-18.8,5.1-18.8,5.1v13L54.8,79c3.6,0.2,7.2-0.3,10.7-1.5L83,71.1
		c1.3-0.6,1.8-2.2,1.1-3.4C84,67.5,83.9,67.3,83.8,67.1L83.8,67.1z"/>
	<path class="st3" d="M56.4,79.5c-0.6,0-1.1,0-1.7-0.1l-28.7-1.8V64l0.1-0.2c0.1-0.1,7.6-9.7,19.4-5.2c9.8,3.7,16.3,4.1,18.8,4.3
		c0.4,0,0.7,0,0.9,0.1c1.1,0.3,2,1.1,2.4,2.2c0.4,1.1,0.2,2.3-0.6,3.1c-1.1,1.3-2.7,2-4.3,1.8l-10.4-1l8.1,2.5l20.3-5.6
		c1.2-0.5,2.6-0.2,3.5,0.8c1.1,1.3,1,3.2-0.3,4.3c-0.2,0.2-0.4,0.3-0.6,0.4l-0.1,0l-17.6,6.4C62.7,79,59.6,79.6,56.4,79.5L56.4,79.5
		z M27.1,76.7l27.7,1.7c3.5,0.2,7.1-0.3,10.4-1.5l17.5-6.3c1-0.5,1.3-1.7,0.8-2.7C83.1,67,82,66.6,81.1,67L81,67l-20.6,5.6
		l-18.8-5.8l21.3,2.1c1.3,0.2,2.5-0.4,3.4-1.3c0.5-0.5,0.7-1.3,0.4-2c-0.3-0.7-0.8-1.2-1.5-1.5c-0.1,0-0.4,0-0.8-0.1
		c-2.5-0.2-9.2-0.6-19.1-4.3c-10.3-3.9-17.1,3.6-18,4.7V76.7z"/>
	<path class="st5" d="M83,71l-17.6,6.4c-3.4,1.2-7,1.8-10.7,1.5l-28.2-1.7v-1.7l27.6,1.7c3.6,0.2,7.2-0.3,10.7-1.5l17.6-6.4
		c0.8-0.4,1.4-1.2,1.4-2.2c0.9,1.1,0.7,2.7-0.3,3.6C83.3,70.9,83.2,71,83,71z"/>
	<path class="st3" d="M56.4,79.3c-0.6,0-1.1,0-1.7-0.1l-28.2-1.8c-0.2,0-0.3-0.1-0.3-0.3v-13c0-0.1,0-0.1,0.1-0.2
		c0.1-0.1,7.5-9.5,19.1-5.1c9.8,3.7,16.4,4.1,18.9,4.3c0.4,0,0.7,0,0.9,0.1c1,0.3,1.8,1.1,2.2,2c0.4,1,0.2,2.1-0.5,2.8
		c-1,1.2-2.5,1.8-4.1,1.7l-13.1-1.3l10.8,3.3l20.4-5.6c1.1-0.5,2.4-0.2,3.2,0.8c1,1.2,0.9,3-0.3,4c-0.2,0.2-0.4,0.3-0.6,0.4
		l-17.6,6.4C62.6,78.7,59.5,79.3,56.4,79.3L56.4,79.3z M26.9,76.9l27.9,1.7c3.6,0.2,7.2-0.3,10.5-1.5l17.6-6.4c1.1-0.6,1.5-2,1-3.1
		c-0.1-0.2-0.2-0.3-0.3-0.4c-0.6-0.7-1.7-1-2.6-0.6l-20.5,5.6c-0.1,0-0.1,0-0.2,0l-13.4-4.2c-0.2,0-0.2-0.2-0.2-0.3
		c0-0.1,0.2-0.2,0.3-0.2l15.8,1.6c1.4,0.2,2.7-0.4,3.6-1.4c0.6-0.6,0.8-1.5,0.5-2.3c-0.3-0.8-1-1.4-1.8-1.7c-0.1,0-0.4,0-0.8-0.1
		c-2.5-0.2-9.1-0.6-19-4.3c-10.7-4-17.7,4-18.4,4.9L26.9,76.9z"/>
	<path class="st6" d="M15.5,58.9h13.4V79H15.5V58.9z"/>
	<path class="st7" d="M15.5,74.5h13.4V79H15.5V74.5z"/>
	<path class="st8" d="M52.4,21h12.2v14.4H52.4V21z"/>
	<g>
		<path class="st3" d="M64.5,36H52.3c-0.3,0-0.5-0.2-0.5-0.5V21c0-0.3,0.2-0.5,0.5-0.5h12.2c0.3,0,0.5,0.2,0.5,0.5v14.4
			C65.1,35.7,64.8,36,64.5,36L64.5,36z M52.9,34.9H64V21.6H52.9V34.9z"/>
		<path class="st3" d="M67.5,60.2c-0.3,0-0.5-0.2-0.5-0.5V46.7c0-0.3,0.2-0.5,0.5-0.5s0.5,0.2,0.5,0.5v12.9
			C68,60,67.8,60.2,67.5,60.2z"/>
		<path class="st3" d="M70.1,50.6c-0.2,0-0.3-0.1-0.5-0.2l-2.1-3l-2.1,3c-0.2,0.2-0.5,0.3-0.8,0.1s-0.3-0.5-0.1-0.8L67,46
			c0.1-0.2,0.3-0.2,0.5-0.2c0.2,0,0.3,0.1,0.5,0.2l2.6,3.6c0.2,0.2,0.1,0.6-0.1,0.8C70.3,50.5,70.2,50.6,70.1,50.6L70.1,50.6z"/>
		<path class="st3" d="M75.5,60.2c-0.3,0-0.5-0.2-0.5-0.5V46.7c0-0.3,0.2-0.5,0.5-0.5s0.5,0.2,0.5,0.5v12.9
			C76.1,60,75.8,60.2,75.5,60.2z"/>
		<path class="st3" d="M78.1,50.6c-0.2,0-0.3-0.1-0.5-0.2l-2.1-3l-2.1,3c-0.2,0.2-0.5,0.3-0.8,0.1c-0.2-0.2-0.3-0.5-0.1-0.8l2.6-3.6
			c0.1-0.2,0.3-0.2,0.5-0.2c0.2,0,0.3,0.1,0.5,0.2l2.6,3.6c0.2,0.2,0.1,0.6-0.1,0.8C78.3,50.5,78.2,50.6,78.1,50.6L78.1,50.6z"/>
		<path class="st3" d="M28.9,79.5H15.5c-0.3,0-0.5-0.2-0.5-0.5V58.9c0-0.3,0.2-0.5,0.5-0.5h13.4c0.3,0,0.5,0.2,0.5,0.5V79
			C29.4,79.3,29.2,79.5,28.9,79.5z M16,78.4h12.3v-19H16V78.4z"/>
	</g>
</g>
</svg>
