<?xml version="1.0" encoding="utf-8"?>
<!-- Generator: Adobe Illustrator 21.0.1, SVG Export Plug-In . SVG Version: 6.00 Build 0)  -->
<svg version="1.1" id="color_line" xmlns="http://www.w3.org/2000/svg" xmlns:xlink="http://www.w3.org/1999/xlink" x="0px" y="0px"
	 viewBox="0 0 100 100" style="enable-background:new 0 0 100 100;" xml:space="preserve">
<style type="text/css">
	.st0{fill:#FFFFFF;}
	.st1{fill:#27CCBC;}
	.st2{fill:#21B3A9;}
	.st3{fill:#E1E6E9;}
	.st4{fill:#D5D6DB;}
	.st5{fill:#FCD462;}
	.st6{fill:#323C6B;}
</style>
<circle class="st0" cx="50" cy="50" r="50"/>
<g>
	<path class="st1" d="M26.2,23h47.7c1.7,0,3.1,1.4,3.1,3.1v47.7c0,1.7-1.4,3.1-3.1,3.1H26.2c-1.7,0-3.1-1.4-3.1-3.1V26.2
		C23,24.4,24.4,23,26.2,23z"/>
	<path class="st2" d="M77,26.2v47.7c0,1.7-1.4,3.1-3.1,3.1c0,0,0,0,0,0h-0.4c0,0,0-0.1,0-0.1V29.2c0-1.7-1.4-3.1-3.1-3.1H23
		c0-1.7,1.4-3,3.1-3h47.7C75.6,23,77,24.4,77,26.2C77,26.2,77,26.2,77,26.2L77,26.2z"/>
	<path class="st3" d="M31.2,64.9V35.1l4-4h29.7l4,4v29.7l-4,4H35.1L31.2,64.9z"/>
	<path class="st4" d="M68.8,35.1v29.7c-1.5,1.6-2.4,2.4-4,4h-0.4l1.4-1.4V37.7c-1.6-1.5-2.4-2.4-4-4H32.6l2.6-2.6h29.7L68.8,35.1z"
		/>
	<path class="st5" d="M31.8,19.5h3c0.8,0,1.5,0.7,1.5,1.5V23l0,0h-6l0,0v-2.1C30.3,20.1,31,19.5,31.8,19.5z"/>
	<path class="st6" d="M36.3,23.5h-6c-0.3,0-0.5-0.2-0.5-0.5v-2.1c0-1.1,0.9-2,2-2h3c1.1,0,2,0.9,2,2V23
		C36.8,23.3,36.6,23.5,36.3,23.5z M30.8,22.5h4.9v-1.6c0-0.5-0.4-1-1-1h-3c-0.5,0-1,0.4-1,1V22.5z"/>
	<path class="st6" d="M33.3,20c-0.3,0-0.5-0.2-0.5-0.5v-3.9c0-0.3,0.2-0.5,0.5-0.5s0.5,0.2,0.5,0.5v3.9C33.8,19.7,33.6,20,33.3,20z"
		/>
	<path class="st5" d="M42.9,19.5h3c0.8,0,1.5,0.7,1.5,1.5V23l0,0h-6l0,0v-2.1C41.5,20.1,42.1,19.5,42.9,19.5z"/>
	<path class="st6" d="M47.4,23.5h-6c-0.3,0-0.5-0.2-0.5-0.5v-2.1c0-1.1,0.9-2,2-2h3c1.1,0,2,0.9,2,2V23
		C47.9,23.3,47.7,23.5,47.4,23.5L47.4,23.5z M42,22.5h4.9v-1.6c0-0.5-0.4-1-1-1h-3c-0.5,0-1,0.4-1,1L42,22.5z"/>
	<path class="st6" d="M44.4,20c-0.3,0-0.5-0.2-0.5-0.5v-3.9c0-0.3,0.2-0.5,0.5-0.5s0.5,0.2,0.5,0.5v3.9C44.9,19.7,44.7,20,44.4,20z"
		/>
	<path class="st5" d="M54.1,19.5h3c0.8,0,1.5,0.7,1.5,1.5c0,0,0,0,0,0V23l0,0h-6l0,0v-2.1C52.6,20.1,53.3,19.5,54.1,19.5
		C54.1,19.5,54.1,19.5,54.1,19.5z"/>
	<path class="st6" d="M58.5,23.5h-6c-0.3,0-0.5-0.2-0.5-0.5v-2.1c0-1.1,0.9-2,2-2h3c1.1,0,2,0.9,2,2V23
		C59.1,23.3,58.8,23.5,58.5,23.5z M53.1,22.5H58v-1.6c0-0.5-0.4-1-1-1h-3c-0.5,0-1,0.4-1,1L53.1,22.5z"/>
	<path class="st6" d="M55.6,20c-0.3,0-0.5-0.2-0.5-0.5v-3.9c0-0.3,0.2-0.5,0.5-0.5s0.5,0.2,0.5,0.5v3.9C56.1,19.7,55.9,20,55.6,20z"
		/>
	<path class="st5" d="M65.2,19.5h3c0.8,0,1.5,0.7,1.5,1.5c0,0,0,0,0,0V23l0,0h-6l0,0v-2.1C63.7,20.1,64.4,19.5,65.2,19.5L65.2,19.5
		L65.2,19.5z"/>
	<path class="st6" d="M69.7,23.5h-6c-0.3,0-0.5-0.2-0.5-0.5v-2.1c0-1.1,0.9-2,2-2h3c1.1,0,2,0.9,2,2V23C70.2,23.3,70,23.5,69.7,23.5
		z M64.2,22.5h4.9v-1.6c0-0.5-0.4-1-1-1h-3c-0.5,0-1,0.4-1,1L64.2,22.5z"/>
	<path class="st6" d="M66.7,20c-0.3,0-0.5-0.2-0.5-0.5v-3.9c0-0.3,0.2-0.5,0.5-0.5s0.5,0.2,0.5,0.5v3.9C67.2,19.7,67,20,66.7,20z"/>
	<path class="st5" d="M68.2,80.5h-3c-0.8,0-1.5-0.7-1.5-1.5c0,0,0,0,0,0V77l0,0h6l0,0v2.1C69.7,79.9,69,80.5,68.2,80.5L68.2,80.5z"
		/>
	<path class="st6" d="M68.2,81.1h-3c-1.1,0-2-0.9-2-2V77c0-0.3,0.2-0.5,0.5-0.5h6c0.3,0,0.5,0.2,0.5,0.5v2.1
		C70.2,80.2,69.3,81.1,68.2,81.1z M64.2,77.5v1.6c0,0.5,0.4,1,1,1h3c0.5,0,1-0.4,1-1v-1.6H64.2z"/>
	<path class="st6" d="M66.7,85c-0.3,0-0.5-0.2-0.5-0.5v-3.9c0-0.3,0.2-0.5,0.5-0.5s0.5,0.2,0.5,0.5v3.9C67.2,84.8,67,85,66.7,85z"/>
	<path class="st5" d="M57.1,80.5h-3c-0.8,0-1.5-0.7-1.5-1.5V77l0,0h6l0,0v2.1C58.5,79.9,57.9,80.5,57.1,80.5z"/>
	<path class="st6" d="M57.1,81.1h-3c-1.1,0-2-0.9-2-2V77c0-0.3,0.2-0.5,0.5-0.5h6c0.3,0,0.5,0.2,0.5,0.5v2.1
		C59.1,80.2,58.2,81.1,57.1,81.1z M53.1,77.5v1.6c0,0.5,0.4,1,1,1h3c0.5,0,1-0.4,1-1v-1.6H53.1z"/>
	<path class="st6" d="M55.6,85c-0.3,0-0.5-0.2-0.5-0.5v-3.9c0-0.3,0.2-0.5,0.5-0.5s0.5,0.2,0.5,0.5v3.9C56.1,84.8,55.9,85,55.6,85z"
		/>
	<path class="st5" d="M45.9,80.5h-3c-0.8,0-1.5-0.7-1.5-1.5V77l0,0h6l0,0v2.1C47.4,79.9,46.8,80.5,45.9,80.5z"/>
	<path class="st6" d="M45.9,81.1h-3c-1.1,0-2-0.9-2-2V77c0-0.3,0.2-0.5,0.5-0.5h6c0.3,0,0.5,0.2,0.5,0.5v2.1
		C47.9,80.2,47,81.1,45.9,81.1z M42,77.5v1.6c0,0.5,0.4,1,1,1h3c0.5,0,1-0.4,1-1v-1.6H42z"/>
	<path class="st6" d="M44.4,85c-0.3,0-0.5-0.2-0.5-0.5v-3.9c0-0.3,0.2-0.5,0.5-0.5s0.5,0.2,0.5,0.5v3.9C44.9,84.8,44.7,85,44.4,85z"
		/>
	<path class="st5" d="M34.8,80.5h-3c-0.8,0-1.5-0.7-1.5-1.5V77l0,0h6l0,0v2.1C36.3,79.9,35.6,80.5,34.8,80.5z"/>
	<path class="st6" d="M34.8,81.1h-3c-1.1,0-2-0.9-2-2V77c0-0.3,0.2-0.5,0.5-0.5h6c0.3,0,0.5,0.2,0.5,0.5v2.1
		C36.8,80.2,35.9,81.1,34.8,81.1z M30.8,77.5v1.6c0,0.5,0.4,1,1,1h3c0.5,0,1-0.4,1-1v-1.6H30.8z"/>
	<path class="st6" d="M33.3,85c-0.3,0-0.5-0.2-0.5-0.5v-3.9c0-0.3,0.2-0.5,0.5-0.5s0.5,0.2,0.5,0.5v3.9C33.8,84.8,33.6,85,33.3,85z"
		/>
	<path class="st5" d="M80.6,31.8v3c0,0.8-0.7,1.5-1.5,1.5c0,0,0,0,0,0H77l0,0v-6l0,0h2.1C79.9,30.3,80.6,31,80.6,31.8L80.6,31.8
		L80.6,31.8z"/>
	<path class="st6" d="M79.1,36.8H77c-0.3,0-0.5-0.2-0.5-0.5v-6c0-0.3,0.2-0.5,0.5-0.5h2.1c1.1,0,2,0.9,2,2v3
		C81.1,35.9,80.2,36.8,79.1,36.8L79.1,36.8z M77.5,35.8h1.6c0.5,0,1-0.4,1-1v-3c0-0.5-0.4-1-1-1h-1.6L77.5,35.8z"/>
	<path class="st6" d="M84.5,33.8h-3.9c-0.3,0-0.5-0.2-0.5-0.5c0-0.3,0.2-0.5,0.5-0.5h3.9c0.3,0,0.5,0.2,0.5,0.5
		C85,33.6,84.8,33.8,84.5,33.8z"/>
	<path class="st5" d="M80.6,42.9v3c0,0.8-0.7,1.5-1.5,1.5c0,0,0,0,0,0H77l0,0v-6l0,0h2.1C79.9,41.5,80.6,42.1,80.6,42.9L80.6,42.9
		L80.6,42.9z"/>
	<path class="st6" d="M79.1,47.9H77c-0.3,0-0.5-0.2-0.5-0.5v-6c0-0.3,0.2-0.5,0.5-0.5h2.1c1.1,0,2,0.9,2,2v3
		C81.1,47,80.2,47.9,79.1,47.9L79.1,47.9z M77.5,46.9h1.6c0.5,0,1-0.4,1-1v-3c0-0.5-0.4-1-1-1h-1.6L77.5,46.9z"/>
	<path class="st6" d="M84.5,44.9h-3.9c-0.3,0-0.5-0.2-0.5-0.5s0.2-0.5,0.5-0.5h3.9c0.3,0,0.5,0.2,0.5,0.5S84.8,44.9,84.5,44.9z"/>
	<path class="st5" d="M80.6,54.1v3c0,0.8-0.7,1.5-1.5,1.5c0,0,0,0,0,0H77l0,0v-6l0,0h2.1C79.9,52.6,80.6,53.2,80.6,54.1
		C80.6,54.1,80.6,54.1,80.6,54.1L80.6,54.1z"/>
	<path class="st6" d="M79.1,59.1H77c-0.3,0-0.5-0.2-0.5-0.5v-6c0-0.3,0.2-0.5,0.5-0.5h2.1c1.1,0,2,0.9,2,2v3
		C81.1,58.2,80.2,59,79.1,59.1L79.1,59.1z M77.5,58h1.6c0.5,0,1-0.4,1-1v-3c0-0.5-0.4-1-1-1h-1.6L77.5,58z"/>
	<path class="st6" d="M84.5,56.1h-3.9c-0.3,0-0.5-0.2-0.5-0.5s0.2-0.5,0.5-0.5h3.9c0.3,0,0.5,0.2,0.5,0.5S84.8,56.1,84.5,56.1z"/>
	<path class="st5" d="M80.6,65.2v3c0,0.8-0.7,1.5-1.5,1.5c0,0,0,0,0,0H77l0,0v-6l0,0h2.1C79.9,63.7,80.6,64.4,80.6,65.2L80.6,65.2
		L80.6,65.2z"/>
	<path class="st6" d="M79.1,70.2H77c-0.3,0-0.5-0.2-0.5-0.5v-6c0-0.3,0.2-0.5,0.5-0.5h2.1c1.1,0,2,0.9,2,2v3
		C81.1,69.3,80.2,70.2,79.1,70.2L79.1,70.2z M77.5,69.2h1.6c0.5,0,1-0.4,1-1v-3c0-0.5-0.4-1-1-1h-1.6L77.5,69.2z"/>
	<path class="st6" d="M84.5,67.2h-3.9c-0.3,0-0.5-0.2-0.5-0.5c0-0.3,0.2-0.5,0.5-0.5h3.9c0.3,0,0.5,0.2,0.5,0.5
		C85,67,84.8,67.2,84.5,67.2z"/>
	<path class="st5" d="M19.5,68.2v-3c0-0.8,0.7-1.5,1.5-1.5l0,0H23l0,0v6l0,0h-2.1C20.1,69.7,19.5,69,19.5,68.2
		C19.5,68.2,19.5,68.2,19.5,68.2z"/>
	<path class="st6" d="M23,70.2h-2.1c-1.1,0-2-0.9-2-2v-3c0-1.1,0.9-2,2-2H23c0.3,0,0.5,0.2,0.5,0.5v6C23.5,70,23.3,70.2,23,70.2z
		 M20.9,64.2c-0.5,0-1,0.4-1,1v3c0,0.5,0.4,1,1,1h1.6v-4.9H20.9z"/>
	<path class="st6" d="M19.5,67.2h-4c-0.3,0-0.5-0.2-0.5-0.5c0-0.3,0.2-0.5,0.5-0.5h3.9c0.3,0,0.5,0.2,0.5,0.5
		C20,67,19.7,67.2,19.5,67.2L19.5,67.2z"/>
	<path class="st5" d="M19.5,57.1v-3c0-0.8,0.7-1.5,1.5-1.5l0,0H23l0,0v6l0,0h-2.1C20.1,58.5,19.5,57.9,19.5,57.1
		C19.5,57.1,19.5,57.1,19.5,57.1z"/>
	<path class="st6" d="M23,59.1h-2.1c-1.1,0-2-0.9-2-2v-3c0-1.1,0.9-2,2-2H23c0.3,0,0.5,0.2,0.5,0.5v6C23.5,58.8,23.3,59.1,23,59.1z
		 M20.9,53.1c-0.5,0-1,0.4-1,1v3c0,0.5,0.4,1,1,1h1.6v-4.9H20.9z"/>
	<path class="st6" d="M19.5,56.1h-4c-0.3,0-0.5-0.2-0.5-0.5s0.2-0.5,0.5-0.5h3.9c0.3,0,0.5,0.2,0.5,0.5S19.7,56.1,19.5,56.1
		L19.5,56.1z"/>
	<path class="st5" d="M19.5,45.9v-3c0-0.8,0.7-1.5,1.5-1.5l0,0H23l0,0v6l0,0h-2.1C20.1,47.4,19.5,46.7,19.5,45.9L19.5,45.9z"/>
	<path class="st6" d="M23,47.9h-2.1c-1.1,0-2-0.9-2-2v-3c0-1.1,0.9-2,2-2H23c0.3,0,0.5,0.2,0.5,0.5v6C23.5,47.7,23.3,47.9,23,47.9z
		 M20.9,42c-0.5,0-1,0.4-1,1v3c0,0.5,0.4,1,1,1h1.6V42L20.9,42z"/>
	<path class="st6" d="M19.5,44.9h-4c-0.3,0-0.5-0.2-0.5-0.5s0.2-0.5,0.5-0.5h3.9c0.3,0,0.5,0.2,0.5,0.5S19.7,44.9,19.5,44.9
		L19.5,44.9z"/>
	<path class="st5" d="M19.5,34.8v-3c0-0.8,0.7-1.5,1.5-1.5H23l0,0v6l0,0h-2.1C20.1,36.3,19.5,35.6,19.5,34.8z"/>
	<g>
		<path class="st6" d="M23,36.8h-2.1c-1.1,0-2-0.9-2-2v-3c0-1.1,0.9-2,2-2H23c0.3,0,0.5,0.2,0.5,0.5v6C23.5,36.6,23.3,36.8,23,36.8z
			 M20.9,30.8c-0.5,0-1,0.4-1,1v3c0,0.5,0.4,1,1,1h1.6v-4.9H20.9z"/>
		<path class="st6" d="M19.5,33.8h-4c-0.3,0-0.5-0.2-0.5-0.5c0-0.3,0.2-0.5,0.5-0.5h3.9c0.3,0,0.5,0.2,0.5,0.5
			C20,33.6,19.7,33.8,19.5,33.8L19.5,33.8z"/>
		<path class="st6" d="M37,38.7h-0.9c-0.3,0-0.5-0.2-0.5-0.5s0.2-0.5,0.5-0.5H37c0.3,0,0.5,0.2,0.5,0.5S37.3,38.7,37,38.7z"/>
		<path class="st6" d="M43.8,38.7h-0.9c-0.3,0-0.5-0.2-0.5-0.5s0.2-0.5,0.5-0.5h0.9c0.3,0,0.5,0.2,0.5,0.5S44,38.7,43.8,38.7z"/>
		<path class="st6" d="M50.5,38.7h-0.9c-0.3,0-0.5-0.2-0.5-0.5s0.2-0.5,0.5-0.5h0.9c0.3,0,0.5,0.2,0.5,0.5S50.7,38.7,50.5,38.7z"/>
		<path class="st6" d="M57.2,38.7h-0.9c-0.3,0-0.5-0.2-0.5-0.5s0.2-0.5,0.5-0.5h0.9c0.3,0,0.5,0.2,0.5,0.5S57.4,38.7,57.2,38.7z"/>
		<path class="st6" d="M63.9,38.7H63c-0.3,0-0.5-0.2-0.5-0.5s0.2-0.5,0.5-0.5h0.9c0.3,0,0.5,0.2,0.5,0.5S64.1,38.7,63.9,38.7z"/>
		<path class="st6" d="M37.3,38.7h-0.9c-0.3,0-0.5-0.2-0.5-0.5s0.2-0.5,0.5-0.5h0.9c0.3,0,0.5,0.2,0.5,0.5S37.6,38.7,37.3,38.7z"/>
		<path class="st6" d="M43.8,38.7h-0.9c-0.3,0-0.5-0.2-0.5-0.5s0.2-0.5,0.5-0.5h0.9c0.3,0,0.5,0.2,0.5,0.5S44.1,38.7,43.8,38.7z"/>
		<path class="st6" d="M50.3,38.7h-0.9c-0.3,0-0.5-0.2-0.5-0.5s0.2-0.5,0.5-0.5h0.9c0.3,0,0.5,0.2,0.5,0.5S50.6,38.7,50.3,38.7z"/>
		<path class="st6" d="M56.8,38.7h-0.9c-0.3,0-0.5-0.2-0.5-0.5s0.2-0.5,0.5-0.5h0.9c0.3,0,0.5,0.2,0.5,0.5S57,38.7,56.8,38.7z"/>
		<path class="st6" d="M63.2,38.7h-0.9c-0.3,0-0.5-0.2-0.5-0.5s0.2-0.5,0.5-0.5h0.9c0.3,0,0.5,0.2,0.5,0.5S63.5,38.7,63.2,38.7
			L63.2,38.7z"/>
		<path class="st6" d="M37.3,44.6h-0.9c-0.3,0-0.5-0.2-0.5-0.5s0.2-0.5,0.5-0.5h0.9c0.3,0,0.5,0.2,0.5,0.5S37.6,44.6,37.3,44.6z"/>
		<path class="st6" d="M43.8,44.6h-0.9c-0.3,0-0.5-0.2-0.5-0.5s0.2-0.5,0.5-0.5h0.9c0.3,0,0.5,0.2,0.5,0.5S44.1,44.6,43.8,44.6z"/>
		<path class="st6" d="M50.3,44.6h-0.9c-0.3,0-0.5-0.2-0.5-0.5s0.2-0.5,0.5-0.5h0.9c0.3,0,0.5,0.2,0.5,0.5S50.6,44.6,50.3,44.6z"/>
		<path class="st6" d="M56.8,44.6h-0.9c-0.3,0-0.5-0.2-0.5-0.5s0.2-0.5,0.5-0.5h0.9c0.3,0,0.5,0.2,0.5,0.5S57,44.6,56.8,44.6z"/>
		<path class="st6" d="M63.2,44.6h-0.9c-0.3,0-0.5-0.2-0.5-0.5s0.2-0.5,0.5-0.5h0.9c0.3,0,0.5,0.2,0.5,0.5S63.5,44.6,63.2,44.6
			L63.2,44.6z"/>
		<path class="st6" d="M37.3,50.5h-0.9c-0.3,0-0.5-0.2-0.5-0.5s0.2-0.5,0.5-0.5h0.9c0.3,0,0.5,0.2,0.5,0.5S37.6,50.5,37.3,50.5z"/>
		<path class="st6" d="M43.8,50.5h-0.9c-0.3,0-0.5-0.2-0.5-0.5s0.2-0.5,0.5-0.5h0.9c0.3,0,0.5,0.2,0.5,0.5S44.1,50.5,43.8,50.5z"/>
		<path class="st6" d="M50.3,50.5h-0.9c-0.3,0-0.5-0.2-0.5-0.5s0.2-0.5,0.5-0.5h0.9c0.3,0,0.5,0.2,0.5,0.5S50.6,50.5,50.3,50.5z"/>
		<path class="st6" d="M56.8,50.5h-0.9c-0.3,0-0.5-0.2-0.5-0.5s0.2-0.5,0.5-0.5h0.9c0.3,0,0.5,0.2,0.5,0.5S57,50.5,56.8,50.5z"/>
		<path class="st6" d="M63.2,50.5h-0.9c-0.3,0-0.5-0.2-0.5-0.5s0.2-0.5,0.5-0.5h0.9c0.3,0,0.5,0.2,0.5,0.5S63.5,50.5,63.2,50.5
			L63.2,50.5z"/>
		<path class="st6" d="M37.3,56.4h-0.9c-0.3,0-0.5-0.2-0.5-0.5s0.2-0.5,0.5-0.5h0.9c0.3,0,0.5,0.2,0.5,0.5S37.6,56.4,37.3,56.4z"/>
		<path class="st6" d="M43.8,56.4h-0.9c-0.3,0-0.5-0.2-0.5-0.5s0.2-0.5,0.5-0.5h0.9c0.3,0,0.5,0.2,0.5,0.5S44.1,56.4,43.8,56.4z"/>
		<path class="st6" d="M50.3,56.4h-0.9c-0.3,0-0.5-0.2-0.5-0.5s0.2-0.5,0.5-0.5h0.9c0.3,0,0.5,0.2,0.5,0.5S50.6,56.4,50.3,56.4z"/>
		<path class="st6" d="M56.8,56.4h-0.9c-0.3,0-0.5-0.2-0.5-0.5s0.2-0.5,0.5-0.5h0.9c0.3,0,0.5,0.2,0.5,0.5S57,56.4,56.8,56.4z"/>
		<path class="st6" d="M63.2,56.4h-0.9c-0.3,0-0.5-0.2-0.5-0.5s0.2-0.5,0.5-0.5h0.9c0.3,0,0.5,0.2,0.5,0.5S63.5,56.4,63.2,56.4
			L63.2,56.4z"/>
		<path class="st6" d="M37.3,62.4h-0.9c-0.3,0-0.5-0.2-0.5-0.5s0.2-0.5,0.5-0.5h0.9c0.3,0,0.5,0.2,0.5,0.5S37.6,62.4,37.3,62.4z"/>
		<path class="st6" d="M43.8,62.4h-0.9c-0.3,0-0.5-0.2-0.5-0.5s0.2-0.5,0.5-0.5h0.9c0.3,0,0.5,0.2,0.5,0.5S44.1,62.4,43.8,62.4z"/>
		<path class="st6" d="M50.3,62.4h-0.9c-0.3,0-0.5-0.2-0.5-0.5s0.2-0.5,0.5-0.5h0.9c0.3,0,0.5,0.2,0.5,0.5S50.6,62.4,50.3,62.4z"/>
		<path class="st6" d="M56.8,62.4h-0.9c-0.3,0-0.5-0.2-0.5-0.5s0.2-0.5,0.5-0.5h0.9c0.3,0,0.5,0.2,0.5,0.5S57,62.4,56.8,62.4z"/>
		<path class="st6" d="M63.2,62.4h-0.9c-0.3,0-0.5-0.2-0.5-0.5s0.2-0.5,0.5-0.5h0.9c0.3,0,0.5,0.2,0.5,0.5S63.5,62.4,63.2,62.4
			L63.2,62.4z"/>
		<path class="st6" d="M74.5,80.5c-0.3,0-0.5-0.2-0.5-0.5c0-0.3,0.2-0.5,0.5-0.5c2.9-0.3,5-2.7,5-5.6v-1.1c0-0.3,0.2-0.5,0.5-0.5
			s0.5,0.2,0.5,0.5v1.1C80.5,77.2,78,80.1,74.5,80.5L74.5,80.5z"/>
		<path class="st6" d="M72.4,80.5h-1c-0.3,0-0.5-0.2-0.5-0.5c0-0.3,0.2-0.5,0.5-0.5h1c0.3,0,0.5,0.2,0.5,0.5
			C72.9,80.3,72.7,80.5,72.4,80.5L72.4,80.5z"/>
		<path class="st6" d="M20,28.8c-0.3,0-0.5-0.2-0.5-0.5v-0.2c0-0.3,0.2-0.5,0.5-0.5c0.3,0,0.5,0.2,0.5,0.5v0.2
			C20.5,28.5,20.3,28.8,20,28.8z"/>
		<path class="st6" d="M20,26.2L20,26.2c-0.3,0-0.5-0.3-0.5-0.5c0,0,0,0,0,0c0.3-3.5,3.2-6.2,6.7-6.2h1.2c0.3,0,0.5,0.2,0.5,0.5
			s-0.2,0.5-0.5,0.5h-1.2c-3,0-5.4,2.3-5.7,5.3C20.5,26,20.3,26.2,20,26.2z"/>
		<path class="st6" d="M73.8,77.5H26.2c-2,0-3.6-1.6-3.6-3.6V26.2c0-2,1.6-3.6,3.6-3.6h47.7c2,0,3.6,1.6,3.6,3.6v47.7
			C77.5,75.9,75.9,77.5,73.8,77.5z M26.2,23.5c-1.5,0-2.6,1.2-2.6,2.6v47.7c0,1.5,1.2,2.6,2.6,2.6h47.7c1.5,0,2.6-1.2,2.6-2.6V26.2
			c0-1.5-1.2-2.6-2.6-2.6L26.2,23.5z"/>
	</g>
	<path class="st0" d="M26.5,64.5c-0.4,0-0.7-0.3-0.7-0.7l0,0V63c0-0.4,0.3-0.7,0.7-0.7c0.4,0,0.7,0.3,0.7,0.7v0.8
		C27.1,64.2,26.8,64.5,26.5,64.5C26.5,64.5,26.5,64.5,26.5,64.5L26.5,64.5z"/>
	<path class="st0" d="M30.8,73.5h-1.2c-2.1,0-3.8-1.7-3.8-3.8v-3.3c0-0.4,0.3-0.7,0.7-0.7c0.4,0,0.7,0.3,0.7,0.7v3.3
		c0,1.4,1.1,2.5,2.5,2.5h1.2c0.4,0,0.7,0.3,0.7,0.7C31.5,73.2,31.2,73.5,30.8,73.5C30.8,73.5,30.8,73.5,30.8,73.5L30.8,73.5z"/>
	<path class="st6" d="M64.9,69.3H35.1c-0.1,0-0.3-0.1-0.4-0.1l-4-4c-0.1-0.1-0.1-0.2-0.1-0.4V35.1c0-0.1,0.1-0.3,0.1-0.4l4-4
		c0.1-0.1,0.2-0.1,0.4-0.1h29.7c0.1,0,0.3,0.1,0.4,0.1l4,4c0.1,0.1,0.1,0.2,0.1,0.4v29.7c0,0.1-0.1,0.3-0.1,0.4l-4,4
		C65.1,69.3,65,69.3,64.9,69.3z M35.3,68.3h29.3l3.7-3.7V35.3l-3.7-3.7H35.3l-3.7,3.7v29.3L35.3,68.3z"/>
</g>
</svg>
